<?xml version="1.0" encoding="utf-8"?>
<!-- Generator: Adobe Illustrator 16.0.0, SVG Export Plug-In . SVG Version: 6.00 Build 0)  -->
<!DOCTYPE svg PUBLIC "-//W3C//DTD SVG 1.1//EN" "http://www.w3.org/Graphics/SVG/1.1/DTD/svg11.dtd">
<svg version="1.1" id="Layer_1" xmlns="http://www.w3.org/2000/svg" xmlns:xlink="http://www.w3.org/1999/xlink" x="0px" y="0px"
	 width="40px" height="40px" viewBox="0 0 40 40" enable-background="new 0 0 40 40" xml:space="preserve">
<path fill="#1e1c58" d="M38.383,33.287l-5.084-5.083c-0.447-0.448-1.175-0.448-2.771-1.148l-2.029-2.029
	c1.743-2.451,2.778-5.439,2.778-8.676c0-8.283-6.714-14.998-14.998-14.998S1.281,8.068,1.281,16.351
	c0,8.282,6.714,14.997,14.998,14.997c3.31,0,6.358-1.085,8.838-2.9l2.011,2.011c0.699,1.595,0.699,2.321,1.147,2.769l5.084,5.084
	c0.447,0.448,1.175,0.448,1.623,0l3.4-3.399C38.831,34.463,38.831,33.736,38.383,33.287z M16.279,25.933
	c-5.292,0-9.583-4.29-9.583-9.582c0-5.292,4.291-9.583,9.583-9.583s9.583,4.29,9.583,9.583
	C25.861,21.643,21.571,25.933,16.279,25.933z"/>
</svg>
