<?xml version="1.0" encoding="utf-8"?>
<!-- Generator: Adobe Illustrator 19.0.0, SVG Export Plug-In . SVG Version: 6.00 Build 0)  -->
<svg version="1.1" id="Layer_1" xmlns="http://www.w3.org/2000/svg" xmlns:xlink="http://www.w3.org/1999/xlink" x="0px" y="0px"
	 viewBox="0 0 200 100" style="enable-background:new 0 0 200 100;" xml:space="preserve">
<style type="text/css">
	.st0{fill:#B48E4A;}
	.st1{fill:#ffffff;}
</style>
<g>
	<g>
		<path class="st0" d="M195.3,8.9h-28.7l-0.1,5.1l9.6,1.5v24.9l1.4,12.1L149.1,9l0.1-0.1h-23.7l-0.1,5.1l7.1,1.3v50.1
			c-1.6,0.7-3.1,1.5-4.5,2.3l-0.8-0.3c-3-1.2-8.2-5.7-15.5-13.5l10.1-15l5.7-2.3l0.8-5.6h-18.8l-0.8,5.6l5.5,1.9L107,49.1L98,39.4
			v-0.7c6.1-3.9,9.1-8.5,9.1-13.9c0-4-1.2-7-3.7-9c-2.5-2-5.8-3-10-3c-4.2,0-8,1.4-11.4,4.4c-3.4,2.9-5.1,6.5-5.1,10.7
			c0,2.3,0.6,4.6,1.7,7c1.1,2.4,2.5,4.3,4.3,5.9c-4.5,2.4-7.9,5-10.3,7.8C70.2,51.4,69,54.9,69,59c0,3.4,0.7,6.2,2.1,8.5l-4.3-0.7
			L42.5,6.6l-15.1,3.9l1.5,4l-20.7,51C5,66.9,2.3,68.4,0,69.9L0.6,73h27.1l0.1-5.1l-8.3-1.4l3.9-10.2h21.3l3.4,9.2
			c-3.4,1.6-5.9,3.1-7.7,4.4l0.6,3.1h30.7h2.1h4.9c2.2,0.8,4.8,1.1,7.6,1.1c7.2,0,13.3-3.3,18.3-10l2.9,3c4.2,4.5,8.7,6.7,13.4,6.7
			c2.4,0,4.6-0.3,6.6-0.9H153l0.1-5.1l-8.5-1.4v-24l-1.4-11.7l29,43.5l15.5-1.3l0.5-56.7c2.8-1.2,5.4-2.6,7.7-4.3L195.3,8.9z
			 M26.3,48.2L34,27.9l7.6,20.3H26.3z M88.5,20.5c0.9-1.1,2.1-1.7,3.7-1.7c1.5,0,2.8,0.7,3.7,2.1c0.9,1.4,1.4,3.2,1.4,5.3
			c0,2.1-0.3,3.8-1,4.9c-0.6,1.2-1.6,2.4-3,3.5c-1.6-1.4-3-3.1-4.3-5c-1.3-1.9-1.9-3.6-1.9-5.2S87.6,21.6,88.5,20.5 M89.7,65.7
			c-2.3,0-4.3-1.1-5.9-3.3c-1.7-2.2-2.5-5-2.5-8.4c0-3.4,1.7-6.4,5.1-9l0.6,0.1l12.8,14.2C97.1,63.6,93.7,65.7,89.7,65.7"/>
		<path id="XMLID_33_" class="st1" d="M27,57.9h-1.7c-0.6,0-1,0.3-1.2,0.9l-1.9,5.1c-0.3,0.8,0.2,1.6,1,1.8l1.3,0.2
			c-0.1-0.4-0.2-0.8,0-1.2L27,57.9z"/>
		<path id="XMLID_32_" class="st1" d="M32.7,35.5l-4.2,11.2h2.8c0-0.2,0-0.5,0.1-0.8l3.8-10.2l-0.1-0.2
			C34.8,34.4,33.2,34.4,32.7,35.5"/>
		<path id="XMLID_31_" class="st1" d="M30.6,67.7l-1.3-0.2c0,0.1,0,0.2,0,0.3L29.2,73h1.1c0.9,0,1.7-0.7,1.7-1.7l0-2
			C32,68.5,31.4,67.8,30.6,67.7"/>
		<path id="XMLID_30_" class="st1" d="M67.5,59c0-0.3,0-0.6,0-1L47.3,8c-0.3-0.8-1.2-1.2-2-1l-0.9,0.2l23.2,57.6
			c0.2,0.4,0.5,0.7,0.9,0.8C67.9,63.6,67.5,61.4,67.5,59"/>
		<path id="XMLID_29_" class="st1" d="M150.9,8.9l21.4,32.8c0.6,1,1.9,0.7,2.3-0.2L153.4,9l0.1-0.1H150.9z"/>
		<path id="XMLID_28_" class="st1" d="M146.1,42.3c0,0.1,0,0.1,0,0.2v21.6c0,0.6,0.5,1.2,1.1,1.3l1.7,0.3c-0.1-0.2-0.1-0.4-0.1-0.6
			V42.6c0-0.1,0-0.1,0-0.2l-0.1-0.6l-0.3-0.4C147.7,40.3,145.9,41,146.1,42.3"/>
		<path id="XMLID_27_" class="st1" d="M200,10.9l-0.1-0.6c-0.1-0.8-0.8-1.4-1.7-1.4h-1.3l0.6,2.9c0.1,0.5-0.1,1-0.5,1.3
			c-2,1.4-4.1,2.6-6.5,3.7c-0.5,0.2-0.8,0.7-0.8,1.2l-0.5,55.1c0,0,0,0,0,0l1.2-0.1c0.9-0.1,1.5-0.8,1.6-1.7l0.5-54.1
			c0-0.7,0.4-1.2,1-1.5c2.1-1,4-2,5.8-3.2C199.8,12.3,200.1,11.6,200,10.9"/>
		<path id="XMLID_26_" class="st1" d="M155.9,67.7l-1.3-0.2c0,0.1,0,0.2,0,0.3l-0.1,5.3h1.1c0.9,0,1.7-0.7,1.7-1.7l0-2
			C157.4,68.5,156.8,67.8,155.9,67.7"/>
		<path id="XMLID_25_" class="st1" d="M85,61.5c1.4,1.8,2.9,2.7,4.7,2.7c0,0,0,0,0,0c-0.6-0.5-1.2-1.1-1.7-1.8
			c-1.7-2.2-2.5-5-2.5-8.4c0-2.1,0.7-4.1,2-5.9l-0.2-0.2c-0.5-0.6-1.4-0.6-2,0c-1.8,1.9-2.7,3.9-2.7,6.1
			C82.9,57.1,83.6,59.6,85,61.5"/>
		<path id="XMLID_24_" class="st1" d="M104.4,14.7c2.8,2.3,4.3,5.7,4.3,10.2c0,5.1-2.5,9.7-7.5,13.6c-0.6,0.5-0.7,1.4-0.2,1.9
			l4.7,5.1c0.6,0.6,1.6,0.5,2.1-0.1l-5-5.4c-0.3-0.3-0.5-0.7-0.5-1.1v0c2.1-1.3,3.8-2.8,5.2-4.3l0.6-3.8c0.1-0.6,0.7-1.1,1.3-1.1
			h1.2c0.6-1.5,0.8-3,0.8-4.6c0-4-1.2-7-3.7-9c-1.5-1.2-3.2-2-5.3-2.5C103.1,13.8,103.8,14.2,104.4,14.7"/>
		<path id="XMLID_23_" class="st1" d="M127.9,66c0.2-0.1,0.4-0.2,0.7-0.4c-2.9-2.1-6.7-5.6-11.6-10.8c-0.5-0.6-0.6-1.5-0.2-2.1
			l9-13.4c0.2-0.3,0.6-0.6,0.9-0.7l4-1.8c0.1,0,0.2-0.1,0.3-0.1v-5.7c-0.1,0-0.2,0-0.4,0h-0.8c0,0.1,0,0.2,0,0.3l-0.8,5.6
			c-0.1,0.5-0.4,1-1,1.1l-4.8,2c-0.3,0.1-0.6,0.3-0.7,0.5l-8.3,12.2c-0.3,0.5-0.3,1.2,0.1,1.7c7.8,8.1,11.6,10.7,13.4,11.4L127.9,66
			z"/>
		<path id="XMLID_22_" class="st1" d="M105.7,67.5c-0.5-0.5-1.4-0.5-1.9,0c-2.3,2.6-4.9,4.5-7.6,5.9c3.5-1,6.8-2.9,9.7-5.8
			L105.7,67.5z"/>
		<path id="XMLID_21_" class="st1" d="M92.8,20.5c-0.2,0-0.4-0.1-0.6-0.1c-1.1,0-1.9,0.3-2.5,1.1c-0.7,0.8-1,1.8-1,3.1
			c0,1.3,0.6,2.7,1.7,4.3c0.9,1.4,2,2.6,3.1,3.7c0.4-0.4,0.8-0.9,1.1-1.3c-0.4-0.5-0.8-1-1.2-1.6c-1.3-1.9-1.9-3.6-1.9-5.2
			S91.8,21.6,92.8,20.5C92.8,20.5,92.8,20.5,92.8,20.5"/>
	</g>
	<path id="XMLID_20_" class="st1" d="M26.5,92.2l0,0.7h-4.9l-0.1-0.4c0.4-0.2,0.8-0.5,1.2-0.7v-7.3l-1.1-0.2l0-0.7h4.7l0.1,0.4
		c-0.3,0.2-0.7,0.5-1.2,0.7V92L26.5,92.2z"/>
	<path id="XMLID_19_" class="st1" d="M43.1,92.3l0,0.7h-4.8l-0.1-0.4c0.3-0.2,0.7-0.4,1.2-0.7l0-3.1l0.2-2.5l-2.5,6.5l-1.8,0.3
		l-2.5-6.8l0.2,2.4l0,3.3l1.2,0.3l0,0.7h-4.1L30,92.5c0.4-0.3,0.8-0.5,1.2-0.7l0.2-7l-1.2-0.3l0-0.7h4.2l0,0l2.4,6.6l2.5-6.6h3.6
		l0.1,0.4c-0.3,0.2-0.7,0.4-1.2,0.7l0.1,7L43.1,92.3z"/>
	<path class="st1" d="M50.3,89.7V92l1.7,0.3l0,0.7h-5.3l-0.1-0.4c0.4-0.2,0.7-0.4,1.1-0.6v-7.3l-1-0.2l0-0.7l4.8-0.1
		c1.1,0,2,0.3,2.7,0.9c0.7,0.6,1.1,1.3,1.1,2.3c0,0.8-0.3,1.5-1,2.1c-0.7,0.6-1.5,0.9-2.5,0.9L50.3,89.7z M50.3,85v3.3
		c0.3,0.1,0.6,0.1,0.9,0.1c0.5,0,0.9-0.2,1.2-0.5c0.3-0.3,0.4-0.7,0.4-1.2c0-0.4-0.1-0.7-0.2-1.1c-0.1-0.4-0.3-0.6-0.5-0.8L50.3,85z
		"/>
	<path class="st1" d="M63.4,83.4c1.4,0,2.5,0.5,3.4,1.4c0.9,0.9,1.3,2.2,1.3,3.6c0,1.5-0.4,2.6-1.3,3.5c-0.9,0.9-2,1.3-3.3,1.3
		c-1.4,0-2.5-0.4-3.4-1.3c-0.9-0.9-1.3-2.1-1.3-3.5c0-1.5,0.4-2.7,1.3-3.6C61,83.9,62.1,83.4,63.4,83.4 M62.4,84.9
		c-0.3,0.2-0.5,0.6-0.7,1.2c-0.2,0.6-0.3,1.2-0.3,2c0,1.1,0.2,2.1,0.6,2.7c0.4,0.7,1,1,1.7,1c0.2,0,0.5,0,0.7-0.1
		c0.3-0.3,0.6-0.7,0.7-1.3c0.2-0.6,0.3-1.2,0.3-2c0-1.1-0.2-2-0.6-2.7c-0.4-0.7-0.9-1-1.6-1C63,84.7,62.7,84.8,62.4,84.9"/>
	<path class="st1" d="M81.4,92.2l0,0.7h-3.1l-1.9-3.5l-0.9,0V92l1.2,0.2l0,0.7h-4.8l-0.1-0.4c0.4-0.2,0.8-0.5,1.2-0.7v-7.3l-1.1-0.2
		l0-0.7l4.8-0.1c1.1,0,2,0.3,2.8,0.8c0.7,0.6,1.1,1.3,1.1,2.1c0,0.5-0.2,1-0.5,1.5c-0.3,0.5-0.8,0.8-1.3,1.1l1.9,3L81.4,92.2z
		 M75.4,88.1c0.3,0.1,0.5,0.1,0.8,0.1c1.1,0,1.7-0.6,1.7-1.7c0-0.8-0.2-1.3-0.7-1.8L75.4,85V88.1z"/>
	<path id="XMLID_12_" class="st1" d="M93.3,83.6c0,0.3,0,0.8-0.1,1.5c-0.1,0.7-0.1,1.3-0.2,1.7h-1.3l-0.2-2L90,84.7V92l1.4,0.2
		l0,0.7h-5.2L86,92.5c0.3-0.2,0.7-0.4,1.4-0.7v-7.1l-1.5,0.1l-0.2,2h-1.3c-0.2-0.8-0.3-1.8-0.3-2.8l0-0.4l4.6,0.1L93.3,83.6
		L93.3,83.6z"/>
	<path class="st1" d="M106.2,92.2l0,0.7h-4.8l-0.1-0.4c0.3-0.2,0.6-0.4,1.1-0.6l-0.5-1.3h-3.1L98.3,92l1.2,0.2l0,0.7h-3.9l-0.1-0.4
		c0.3-0.2,0.7-0.4,1.2-0.6l3-7.4l-0.2-0.6l2.2-0.6l3.5,8.7L106.2,92.2z M101.5,89.4l-1.1-2.9l-1.1,2.9H101.5z"/>
	<path id="XMLID_9_" class="st1" d="M117.2,92l-2.9,1.2c-1.2,0-2.2-0.2-3-0.6c-0.8-0.5-1.3-1.1-1.7-1.8c-0.3-0.7-0.5-1.5-0.5-2.3
		c0-0.9,0.2-1.7,0.6-2.5c0.4-0.8,0.9-1.4,1.7-1.9c0.7-0.5,1.6-0.7,2.7-0.7c1.1,0,2.1,0.3,3,0.9l0,0.3c0,0.8-0.1,1.6-0.3,2.4h-1.5
		l-0.4-1.9c-0.6-0.2-1.2-0.4-1.8-0.4c-0.4,0.4-0.7,0.8-0.9,1.4c-0.2,0.6-0.3,1.2-0.3,1.9c0,1,0.2,1.9,0.7,2.5c0.5,0.7,1.2,1,2.1,1
		l2.4-0.8L117.2,92z"/>
	<path id="XMLID_8_" class="st1" d="M125.7,92.2l0,0.7h-4.9l-0.1-0.4c0.4-0.2,0.8-0.5,1.2-0.7v-7.3l-1.1-0.2l0-0.7h4.7l0.1,0.4
		c-0.3,0.2-0.7,0.5-1.2,0.7V92L125.7,92.2z"/>
	<path class="st1" d="M133.8,83.4c1.4,0,2.5,0.5,3.4,1.4c0.9,0.9,1.3,2.2,1.3,3.6c0,1.5-0.4,2.6-1.3,3.5c-0.9,0.9-2,1.3-3.3,1.3
		c-1.4,0-2.5-0.4-3.4-1.3c-0.9-0.9-1.3-2.1-1.3-3.5c0-1.5,0.4-2.7,1.3-3.6C131.3,83.9,132.4,83.4,133.8,83.4 M132.7,84.9
		c-0.3,0.2-0.5,0.6-0.7,1.2c-0.2,0.6-0.3,1.2-0.3,2c0,1.1,0.2,2.1,0.6,2.7c0.4,0.7,1,1,1.7,1c0.2,0,0.5,0,0.7-0.1
		c0.3-0.3,0.6-0.7,0.7-1.3c0.2-0.6,0.3-1.2,0.3-2c0-1.1-0.2-2-0.6-2.7c-0.4-0.7-0.9-1-1.6-1C133.3,84.7,133,84.8,132.7,84.9"/>
	<path id="XMLID_5_" class="st1" d="M152.5,84.1c-0.3,0.2-0.7,0.4-1.1,0.6l-0.1,8.2l-2.2,0.2l-4.2-6.3l0.2,1.7V92l1.2,0.2l0,0.7
		h-4.1l-0.1-0.4c0.4-0.2,0.8-0.5,1.2-0.7v-7.3l-1-0.2l0-0.7h3.4l0,0l4.1,6.3l-0.2-1.8v-3.6l-1.4-0.2l0-0.7h4.2L152.5,84.1z"/>
	<path id="XMLID_4_" class="st1" d="M163.9,90c0,0.9,0,1.9-0.2,2.9H156l-0.1-0.4c0.4-0.2,0.8-0.5,1.2-0.7v-7.3l-1.1-0.2l0-0.7h7.8
		l0,0.3c0,0.9-0.1,1.7-0.3,2.5h-1.4l-0.3-1.4l-2.3-0.2v2.8l2.9-0.2V89l-2.9-0.1v2.7l2.4-0.2l0.5-1.5L163.9,90z"/>
	<path id="XMLID_3_" class="st1" d="M175.6,90.4c0,0.9-0.3,1.6-1,2.1c-0.7,0.5-1.6,0.8-2.6,0.8c-0.6,0-1.2-0.1-1.8-0.2
		c-0.7-0.1-1.2-0.4-1.7-0.6l0,0l0-0.4c0-0.9,0.1-1.6,0.3-2.3h1.1l0.9,2c0.5,0.2,1.1,0.3,1.6,0.3c0.5-0.2,0.8-0.6,0.8-1.1
		c0-0.5-0.3-0.9-1-1.2l-1.7-0.8l-0.6-0.3c-1-0.6-1.5-1.4-1.5-2.3c0-0.9,0.4-1.5,1.1-2.1c0.7-0.5,1.6-0.8,2.7-0.8c1,0,2.1,0.2,3,0.5
		c0,1.1-0.1,2-0.3,2.7h-1.3l-0.5-1.7c-0.5-0.2-1-0.3-1.6-0.3c-0.4,0.3-0.6,0.6-0.6,1.1c0,0.3,0.1,0.6,0.4,0.8
		c0.3,0.2,0.8,0.5,1.4,0.8c0.7,0.3,1.2,0.6,1.6,0.8c0.4,0.3,0.7,0.6,1,1C175.5,89.3,175.6,89.8,175.6,90.4"/>
	<path id="XMLID_2_" class="st1" d="M8.4,88.8c0.9,0.6,1.8,1.1,2.9,1.4c1,0.3,2.1,0.6,3.1,0.6c1,0,2.2-0.2,3.2-0.3c0-0.5,0-1,0-1.5
		c-1.3-0.1-4.9-0.2-6.9-0.3c0,0,0,0,0,0c2.3-0.1,4.6-0.2,6.9-0.3c0-0.5,0-1,0-1.5c-1.1-0.2-2.4-0.3-3.5-0.3c-0.3,0-0.6,0-1,0.1
		c-1.8,0.3-3.3,0.9-4.7,1.9C8.2,88.7,8.2,88.7,8.4,88.8C8.4,88.8,8.4,88.8,8.4,88.8"/>
	<path id="XMLID_1_" class="st1" d="M187.8,88.6c-0.9-0.6-1.8-1.1-2.9-1.4c-1-0.3-2.1-0.6-3.1-0.6c-1,0-2.2,0.2-3.2,0.3
		c0,0.5,0,1,0,1.5c1.3,0.1,4.9,0.2,6.9,0.3c0,0,0,0,0,0c-2.3,0.1-4.6,0.2-6.9,0.3c0,0.5,0,1,0,1.5c1.1,0.2,2.4,0.3,3.5,0.3
		c0.3,0,0.6,0,1-0.1c1.7-0.3,3.3-0.9,4.7-1.9C187.9,88.7,187.9,88.7,187.8,88.6C187.8,88.6,187.8,88.6,187.8,88.6"/>
</g>
</svg>
