<?xml version="1.0" encoding="utf-8"?>
<!-- Generator: Adobe Illustrator 19.0.0, SVG Export Plug-In . SVG Version: 6.00 Build 0)  -->
<svg version="1.1" id="Layer_1" xmlns="http://www.w3.org/2000/svg" xmlns:xlink="http://www.w3.org/1999/xlink" x="0px" y="0px"
	 viewBox="0 0 20 20" style="enable-background:new 0 0 20 20;" xml:space="preserve">
<style type="text/css">
	.st0{fill:#B48E4A;}
</style>
<path id="XMLID_1_" class="st0" d="M19.7,10.1c-1.9-1.3-4-2.3-6.2-3.1c-2.2-0.7-4.4-1.2-6.8-1.2C4.5,5.8,2.1,6.1,0,6.5
	c0,1.1,0,2.1,0,3.2c2.8,0.1,10.6,0.4,14.8,0.6c0,0,0,0,0,0C9.9,10.5,5,10.7,0,10.9c0,1.1,0,2.2,0,3.2c2.4,0.4,5.1,0.7,7.5,0.7
	c0.7,0,1.4-0.1,2.1-0.2c3.8-0.6,7.1-2,10.2-4.1C20.1,10.3,20.1,10.3,19.7,10.1C19.8,10.1,19.8,10.1,19.7,10.1"/>
</svg>
