<?xml version="1.0" encoding="utf-8"?>
<!-- Generator: Adobe Illustrator 16.0.0, SVG Export Plug-In . SVG Version: 6.00 Build 0)  -->
<!DOCTYPE svg PUBLIC "-//W3C//DTD SVG 1.1//EN" "http://www.w3.org/Graphics/SVG/1.1/DTD/svg11.dtd">
<svg version="1.1" id="Layer_1" xmlns="http://www.w3.org/2000/svg" xmlns:xlink="http://www.w3.org/1999/xlink" x="0px" y="0px"
	 width="200px" height="80px" viewBox="0 0 200 80" enable-background="new 0 0 200 80" xml:space="preserve">
<g>
	<g>
		<g>
			<g>
				<polygon fill="#1E1C58" points="103.402,21.835 40.429,21.835 8.022,21.835 8.022,42.29 8.022,63.435 40.429,63.435 
					40.429,46.887 103.402,46.887 				"/>
			</g>
		</g>
		<g>
			<g>
				<polygon fill="#BE2025" points="103.359,46.8 158.979,46.8 191.384,46.8 191.384,26.346 191.384,5.201 158.979,5.201 
					158.979,21.749 103.359,21.749 				"/>
			</g>
		</g>
	</g>
	<g>
		<g>
			<g>
				<polygon fill="#FFFFFF" points="41.612,42.923 41.612,26.679 56.701,26.679 56.701,30.379 46.171,30.379 46.171,33.233 
					54.671,33.233 54.671,36.14 46.171,36.14 46.171,42.923 				"/>
			</g>
		</g>
		<g>
			<g>
				<path fill="#FFFFFF" d="M59.924,42.923V26.731h4.867v3.114l0.879-0.704c1.248-0.998,2.338-1.668,3.24-1.989
					c0.899-0.32,1.731-0.482,2.473-0.482c0.202,0,0.431,0.005,0.685,0.015c0.06,0.003,0.119,0.005,0.174,0.008v4.245
					c-0.285-0.07-0.668-0.122-1.163-0.159c-0.575-0.041-1.053-0.061-1.436-0.061c-0.868,0-1.648,0.053-2.32,0.158
					c-0.671,0.107-1.402,0.289-2.171,0.543l-0.362,0.117v11.387H59.924z"/>
			</g>
		</g>
		<g>
			<g>
				<path fill="#FFFFFF" d="M75.623,42.976v-9.741h4.512v9.741H75.623z M75.468,30.349v-3.617h4.822v3.617H75.468z"/>
			</g>
		</g>
		<g>
			<g>
				<path fill="#FFFFFF" d="M92.521,43.453c-2.908,0-5.188-0.763-6.774-2.268c-1.584-1.503-2.387-3.604-2.387-6.245
					c0-2.662,0.808-4.771,2.4-6.269c1.597-1.501,3.871-2.262,6.76-2.262c2.927,0,5.211,0.766,6.788,2.274
					c1.575,1.509,2.373,3.613,2.373,6.256c0,2.641-0.803,4.741-2.387,6.245C97.708,42.69,95.429,43.453,92.521,43.453z
					 M92.521,29.184c-0.604,0-1.154,0.08-1.634,0.24c-0.512,0.169-1,0.505-1.448,0.995c-0.401,0.455-0.715,1.064-0.942,1.818
					c-0.217,0.731-0.328,1.65-0.328,2.732c0,0.967,0.096,1.822,0.285,2.542c0.196,0.75,0.496,1.369,0.89,1.841
					c0.394,0.462,0.871,0.803,1.422,1.018c0.532,0.206,1.138,0.311,1.802,0.311c0.576,0,1.135-0.094,1.661-0.281
					c0.558-0.199,1.036-0.537,1.423-1.003c0.408-0.482,0.72-1.07,0.923-1.746c0.2-0.664,0.297-1.542,0.297-2.681
					c0-1.039-0.102-1.93-0.303-2.648c-0.207-0.741-0.505-1.35-0.886-1.808c-0.393-0.483-0.88-0.835-1.443-1.039
					C93.708,29.281,93.129,29.184,92.521,29.184z"/>
			</g>
		</g>
		<g>
			<g>
				<path fill="#FFFFFF" d="M114.887,43.453c-1.488,0-2.863-0.171-4.086-0.51c-1.202-0.333-2.26-0.853-3.145-1.542
					c-0.863-0.68-1.545-1.554-2.023-2.596c-0.482-1.047-0.727-2.303-0.727-3.729c0-1.506,0.262-2.815,0.778-3.89
					c0.515-1.074,1.241-1.974,2.157-2.677c0.892-0.669,1.943-1.168,3.12-1.481c1.198-0.32,2.46-0.481,3.751-0.481
					c1.154,0,2.235,0.122,3.209,0.362c0.862,0.214,1.686,0.488,2.452,0.815v3.808h-0.071c-0.189-0.155-0.408-0.33-0.652-0.521
					c-0.34-0.265-0.752-0.521-1.228-0.767c-0.454-0.235-0.964-0.436-1.517-0.593c-0.562-0.16-1.217-0.24-1.948-0.24
					c-1.669,0-2.979,0.527-3.896,1.567c-0.894,1.017-1.347,2.395-1.347,4.098c0,1.764,0.471,3.137,1.398,4.08
					c0.936,0.95,2.26,1.434,3.939,1.434c0.759,0,1.457-0.085,2.074-0.254c0.612-0.168,1.133-0.37,1.549-0.604
					c0.385-0.219,0.728-0.449,1.021-0.688c0.22-0.179,0.427-0.355,0.621-0.529h0.056v3.805c-0.771,0.328-1.575,0.594-2.396,0.793
					C117.054,43.339,116.014,43.453,114.887,43.453z"/>
			</g>
		</g>
		<g>
			<g>
				<path fill="#FFFFFF" d="M128.99,43.453c-1.558,0-2.822-0.446-3.863-1.364c-1.029-0.906-1.529-2.036-1.529-3.453
					c0-1.129,0.259-2.053,0.77-2.749c0.52-0.706,1.273-1.275,2.238-1.688c1-0.433,2.264-0.745,3.762-0.93
					c1.544-0.189,3.16-0.331,4.802-0.42l0.506-0.027v-0.578c0-1.137-0.521-1.971-1.507-2.413c-0.88-0.396-2.109-0.587-3.76-0.587
					c-0.985,0-2.047,0.169-3.154,0.502c-0.916,0.273-1.625,0.498-2.111,0.67v-3.145c0.586-0.127,1.416-0.272,2.474-0.436
					c1.318-0.2,2.656-0.304,3.976-0.304c3.101,0,5.352,0.452,6.688,1.342c1.293,0.859,1.922,2.189,1.922,4.067v11.058h-4.557v-2.319
					l-0.859,0.621c-0.303,0.221-0.678,0.486-1.127,0.797c-0.424,0.294-0.824,0.527-1.191,0.694c-0.513,0.223-1.057,0.392-1.61,0.498
					C130.292,43.397,129.664,43.453,128.99,43.453z M135.064,35.017c-0.774,0.062-1.612,0.146-2.514,0.252
					c-0.936,0.109-1.633,0.238-2.132,0.391c-0.654,0.197-1.174,0.499-1.538,0.897c-0.388,0.422-0.584,0.971-0.584,1.632
					c0,0.4,0.037,0.726,0.113,0.994c0.093,0.328,0.311,0.628,0.648,0.896c0.29,0.243,0.648,0.428,1.057,0.543
					c0.392,0.112,0.957,0.165,1.729,0.165c0.633,0,1.281-0.124,1.923-0.368c0.636-0.242,1.204-0.566,1.689-0.963l0.188-0.154v-4.33
					L135.064,35.017z"/>
			</g>
		</g>
		<g>
			<g>
				<polygon fill="#FFFFFF" points="143.425,42.923 143.425,26.663 148.111,26.663 148.111,39.96 158.458,39.96 158.458,42.923 				
					"/>
			</g>
		</g>
	</g>
	<g>
		<g>
			<path fill="#FFFFFF" d="M52.871,16.53h-4.893v-1.481h1.369V9.656h-1.369V8.175h4.893v1.481h-1.37v5.393h1.37V16.53z"/>
			<path fill="#010101" d="M53.216,16.876h-5.583v-2.172h1.369v-4.703h-1.369V7.83h5.583v2.171h-1.37v4.703h1.37V16.876z
				 M48.323,16.186h4.204v-0.792h-1.369V9.312h1.369V8.52h-4.204v0.792h1.369v6.082h-1.369V16.186z"/>
		</g>
		<g>
			<path fill="#FFFFFF" d="M64.386,16.53H62.31l-3.546-5.735v5.735h-1.975V8.175h2.575l3.047,4.786V8.175h1.976V16.53z"/>
			<path fill="#010101" d="M64.73,16.876h-2.613l-3.009-4.868v4.868h-2.666V7.83h3.109l2.514,3.947V7.83h2.665V16.876z
				 M62.501,16.186h1.54V8.52h-1.287v5.626L59.174,8.52h-2.041v7.666h1.286V9.583L62.501,16.186z"/>
		</g>
		<g>
			<path fill="#FFFFFF" d="M76.575,12.36c0,0.778-0.178,1.476-0.533,2.091c-0.355,0.615-0.805,1.089-1.347,1.417
				c-0.408,0.246-0.855,0.419-1.341,0.516c-0.487,0.098-1.062,0.146-1.729,0.146h-2.946V8.175h3.031
				c0.681,0,1.268,0.057,1.761,0.171c0.494,0.114,0.909,0.276,1.246,0.485c0.576,0.353,1.03,0.826,1.361,1.423
				S76.575,11.554,76.575,12.36z M74.347,12.345c0-0.551-0.1-1.021-0.3-1.412s-0.517-0.696-0.951-0.918
				c-0.221-0.107-0.446-0.182-0.676-0.221c-0.229-0.04-0.577-0.06-1.041-0.06h-0.544v5.23h0.544c0.513,0,0.889-0.024,1.128-0.07
				s0.473-0.132,0.702-0.255c0.393-0.226,0.68-0.525,0.864-0.901C74.255,13.362,74.347,12.897,74.347,12.345z"/>
			<path fill="#010101" d="M71.625,16.876h-3.291V7.83h3.375c0.703,0,1.322,0.061,1.839,0.18c0.527,0.122,0.981,0.3,1.35,0.528
				c0.623,0.381,1.122,0.901,1.481,1.549c0.357,0.646,0.54,1.411,0.54,2.273c0,0.836-0.195,1.598-0.579,2.264
				c-0.383,0.664-0.877,1.182-1.467,1.539c-0.439,0.267-0.928,0.454-1.452,0.56C72.916,16.823,72.312,16.876,71.625,16.876z
				 M69.024,16.186h2.602c0.641,0,1.2-0.048,1.661-0.14c0.445-0.089,0.859-0.248,1.23-0.473c0.489-0.297,0.902-0.732,1.228-1.295
				c0.322-0.559,0.486-1.204,0.486-1.918c0-0.744-0.153-1.396-0.454-1.939c-0.3-0.541-0.717-0.977-1.239-1.296
				c-0.306-0.19-0.69-0.338-1.144-0.443C72.928,8.574,72.361,8.52,71.71,8.52h-2.686V16.186z M71.378,15.31h-0.889V9.39h0.889
				c0.487,0,0.846,0.021,1.099,0.064c0.261,0.045,0.521,0.129,0.771,0.252c0.503,0.256,0.874,0.614,1.106,1.069
				c0.224,0.438,0.338,0.967,0.338,1.569s-0.104,1.123-0.31,1.545c-0.214,0.438-0.552,0.791-1.003,1.049
				c-0.266,0.144-0.534,0.242-0.807,0.295C72.309,15.284,71.918,15.31,71.378,15.31z M71.179,14.62h0.199
				c0.488,0,0.846-0.021,1.062-0.064c0.204-0.039,0.407-0.113,0.604-0.221c0.327-0.187,0.564-0.432,0.718-0.748
				c0.159-0.326,0.24-0.745,0.24-1.242c0-0.493-0.088-0.915-0.262-1.256c-0.167-0.326-0.43-0.577-0.801-0.767
				c-0.186-0.092-0.382-0.155-0.578-0.189c-0.21-0.035-0.541-0.054-0.983-0.054h-0.199V14.62z"/>
		</g>
		<g>
			<path fill="#FFFFFF" d="M87.697,13.505c0,1.033-0.314,1.824-0.943,2.374c-0.628,0.551-1.554,0.825-2.777,0.825
				c-1.223,0-2.148-0.274-2.775-0.825c-0.626-0.55-0.94-1.339-0.94-2.368V8.175h2.166v5.213c0,0.579,0.122,1.012,0.365,1.297
				c0.243,0.284,0.638,0.426,1.184,0.426c0.539,0,0.933-0.137,1.181-0.409c0.249-0.273,0.373-0.711,0.373-1.313V8.175h2.167V13.505z
				"/>
			<path fill="#010101" d="M83.977,17.05c-1.304,0-2.314-0.307-3.002-0.912c-0.702-0.615-1.057-1.498-1.057-2.627V7.83h2.855v5.558
				c0,0.493,0.095,0.854,0.282,1.072c0.174,0.203,0.484,0.306,0.922,0.306c0.436,0,0.747-0.1,0.926-0.297
				c0.188-0.206,0.284-0.57,0.284-1.081V7.83h2.855v5.675c0,1.133-0.357,2.019-1.061,2.633C86.291,16.743,85.28,17.05,83.977,17.05z
				 M80.606,8.52v4.991c0,0.934,0.269,1.624,0.823,2.109c0.559,0.491,1.416,0.739,2.547,0.739c1.131,0,1.99-0.248,2.55-0.739
				c0.556-0.486,0.825-1.178,0.825-2.115V8.52h-1.477v4.868c0,0.697-0.151,1.203-0.463,1.545c-0.315,0.347-0.799,0.522-1.436,0.522
				c-0.65,0-1.136-0.185-1.446-0.547c-0.297-0.348-0.448-0.858-0.448-1.521V8.52H80.606z"/>
		</g>
		<g>
			<path fill="#FFFFFF" d="M98.561,13.904c0,0.822-0.349,1.491-1.047,2.006c-0.697,0.515-1.645,0.771-2.842,0.771
				c-0.692,0-1.295-0.061-1.81-0.183c-0.514-0.121-0.996-0.275-1.444-0.463v-2.004h0.235c0.445,0.356,0.943,0.629,1.495,0.82
				c0.552,0.19,1.082,0.286,1.591,0.286c0.131,0,0.303-0.012,0.516-0.034c0.213-0.021,0.387-0.059,0.522-0.112
				c0.165-0.066,0.3-0.151,0.406-0.252c0.107-0.101,0.161-0.251,0.161-0.449c0-0.183-0.078-0.341-0.233-0.474
				s-0.382-0.235-0.682-0.307c-0.314-0.074-0.646-0.144-0.996-0.209c-0.35-0.066-0.678-0.149-0.985-0.251
				c-0.703-0.229-1.209-0.538-1.518-0.929s-0.463-0.876-0.463-1.456c0-0.778,0.349-1.413,1.047-1.905
				c0.698-0.491,1.594-0.738,2.69-0.738c0.55,0,1.093,0.054,1.63,0.161c0.537,0.106,1.001,0.239,1.394,0.4v1.925H98
				c-0.337-0.27-0.749-0.494-1.237-0.676s-0.986-0.271-1.496-0.271c-0.179,0-0.358,0.012-0.535,0.036
				c-0.178,0.024-0.35,0.069-0.514,0.137c-0.146,0.056-0.271,0.142-0.376,0.256c-0.105,0.114-0.157,0.243-0.157,0.39
				c0,0.221,0.084,0.39,0.252,0.508c0.168,0.117,0.486,0.226,0.954,0.323c0.307,0.063,0.601,0.124,0.884,0.185
				c0.282,0.061,0.586,0.143,0.912,0.248c0.64,0.208,1.112,0.494,1.417,0.854C98.408,12.858,98.561,13.328,98.561,13.904z"/>
			<path fill="#010101" d="M94.672,17.026c-0.715,0-1.351-0.064-1.889-0.191c-0.529-0.125-1.034-0.286-1.499-0.48l-0.212-0.088
				v-2.578h0.702l0.094,0.075c0.412,0.329,0.88,0.585,1.393,0.763c0.514,0.178,1.011,0.268,1.479,0.268
				c0.122,0,0.282-0.011,0.48-0.031c0.182-0.02,0.328-0.05,0.433-0.092c0.119-0.048,0.219-0.109,0.294-0.181
				C95.991,14.448,96,14.359,96,14.291c0-0.058-0.013-0.127-0.112-0.212c-0.113-0.097-0.294-0.175-0.538-0.232
				c-0.309-0.073-0.635-0.143-0.979-0.207c-0.363-0.068-0.709-0.156-1.03-0.261c-0.764-0.248-1.33-0.599-1.681-1.043
				c-0.357-0.451-0.537-1.013-0.537-1.67c0-0.894,0.401-1.629,1.193-2.187c0.753-0.531,1.726-0.801,2.889-0.801
				c0.57,0,1.141,0.056,1.697,0.166c0.556,0.11,1.046,0.252,1.458,0.42l0.214,0.088v2.501h-0.695l-0.095-0.075
				c-0.307-0.246-0.691-0.455-1.142-0.622c-0.604-0.225-1.243-0.303-1.864-0.218c-0.149,0.021-0.293,0.059-0.43,0.115
				c-0.104,0.039-0.184,0.094-0.253,0.17c-0.046,0.051-0.066,0.097-0.066,0.156c0,0.133,0.051,0.188,0.105,0.226
				c0.073,0.051,0.276,0.153,0.827,0.268l0.885,0.185c0.293,0.062,0.608,0.148,0.946,0.257c0.699,0.229,1.229,0.552,1.574,0.962
				c0.358,0.423,0.539,0.971,0.539,1.628c0,0.935-0.399,1.703-1.187,2.284C96.964,16.744,95.939,17.026,94.672,17.026z
				 M91.762,15.804c0.371,0.142,0.766,0.263,1.179,0.359c0.487,0.115,1.069,0.174,1.73,0.174c1.117,0,2.004-0.236,2.638-0.704
				c0.61-0.45,0.907-1.016,0.907-1.729c0-0.497-0.123-0.884-0.376-1.184c-0.262-0.31-0.687-0.563-1.261-0.751
				c-0.312-0.1-0.604-0.18-0.876-0.237l-0.882-0.185c-0.527-0.109-0.871-0.229-1.082-0.378c-0.261-0.183-0.399-0.456-0.399-0.79
				c0-0.23,0.085-0.446,0.248-0.623c0.141-0.153,0.311-0.27,0.506-0.345c0.184-0.074,0.385-0.128,0.591-0.157
				c0.732-0.1,1.486-0.01,2.198,0.255c0.373,0.139,0.708,0.304,1.003,0.493V8.821c-0.325-0.117-0.7-0.217-1.117-0.301
				c-0.513-0.102-1.039-0.152-1.563-0.152c-1.018,0-1.857,0.227-2.492,0.675c-0.606,0.427-0.901,0.958-0.901,1.623
				c0,0.505,0.127,0.911,0.389,1.242c0.264,0.335,0.72,0.61,1.354,0.814c0.292,0.097,0.609,0.177,0.941,0.239
				c0.356,0.067,0.693,0.138,1.013,0.214c0.357,0.085,0.627,0.209,0.826,0.379c0.231,0.198,0.354,0.453,0.354,0.736
				c0,0.296-0.09,0.531-0.268,0.699c-0.137,0.13-0.31,0.239-0.513,0.321c-0.17,0.066-0.37,0.11-0.617,0.137
				c-0.228,0.023-0.412,0.035-0.552,0.035c-0.544,0-1.118-0.104-1.704-0.306c-0.457-0.157-0.884-0.371-1.273-0.636V15.804z"/>
		</g>
		<g>
			<path fill="#FFFFFF" d="M108.734,9.79h-2.609v6.74h-2.154V9.79h-2.609V8.175h7.373V9.79z"/>
			<path fill="#010101" d="M106.471,16.876h-2.844v-6.74h-2.609V7.83h8.062v2.306h-2.609V16.876z M104.316,16.186h1.465V9.446h2.609
				V8.52h-6.684v0.927h2.609V16.186z"/>
		</g>
		<g>
			<path fill="#FFFFFF" d="M120.238,16.53h-2.631l-2.273-3.064h-0.998v3.064h-2.145V8.175h3.614c0.493,0,0.918,0.027,1.274,0.084
				c0.354,0.056,0.688,0.178,0.998,0.365c0.314,0.187,0.564,0.429,0.75,0.727c0.184,0.297,0.277,0.67,0.277,1.119
				c0,0.617-0.143,1.12-0.43,1.51c-0.286,0.389-0.695,0.712-1.226,0.97L120.238,16.53z M116.877,10.733
				c0-0.209-0.043-0.389-0.129-0.539c-0.086-0.149-0.234-0.268-0.443-0.353c-0.146-0.061-0.316-0.098-0.51-0.11
				c-0.195-0.013-0.422-0.02-0.68-0.02h-0.779v2.251h0.662c0.344,0,0.631-0.017,0.863-0.051s0.427-0.11,0.584-0.229
				c0.149-0.116,0.259-0.245,0.328-0.385C116.843,11.157,116.877,10.969,116.877,10.733z"/>
			<path fill="#010101" d="M120.944,16.876h-3.511l-2.273-3.064h-0.48v3.064h-2.833V7.83h3.959c0.511,0,0.957,0.03,1.327,0.088
				c0.398,0.062,0.776,0.201,1.123,0.41c0.359,0.214,0.65,0.497,0.864,0.84c0.22,0.352,0.33,0.79,0.33,1.302
				c0,0.689-0.167,1.267-0.497,1.714c-0.246,0.336-0.576,0.629-0.982,0.875L120.944,16.876z M117.78,16.186h1.753l-2.617-3.359
				l0.383-0.187c0.479-0.232,0.848-0.523,1.1-0.865c0.24-0.326,0.361-0.766,0.361-1.305c0-0.381-0.075-0.696-0.225-0.938
				c-0.158-0.252-0.364-0.453-0.633-0.612c-0.273-0.165-0.566-0.272-0.877-0.321c-0.334-0.053-0.746-0.079-1.22-0.079h-3.269v7.666
				h1.453v-3.064h1.518L117.78,16.186z M114.998,12.308h-1.008v-2.94h1.125c0.267,0,0.501,0.008,0.702,0.021
				c0.231,0.016,0.439,0.061,0.618,0.135c0.281,0.115,0.486,0.283,0.611,0.5c0.117,0.203,0.176,0.441,0.176,0.711
				c0,0.291-0.047,0.525-0.14,0.717c-0.093,0.187-0.235,0.356-0.427,0.504c-0.205,0.157-0.455,0.257-0.745,0.3
				C115.662,12.29,115.362,12.308,114.998,12.308z M114.68,11.618h0.318c0.326,0,0.601-0.017,0.814-0.047
				c0.174-0.025,0.312-0.078,0.424-0.164c0.105-0.08,0.183-0.17,0.228-0.262c0.032-0.063,0.069-0.187,0.069-0.412
				c0-0.146-0.029-0.271-0.084-0.366c-0.047-0.082-0.139-0.151-0.275-0.207c-0.11-0.045-0.246-0.073-0.402-0.084
				c-0.188-0.013-0.406-0.02-0.656-0.02h-0.436V11.618z"/>
		</g>
		<g>
			<path fill="#FFFFFF" d="M127.859,16.53h-4.893v-1.481h1.369V9.656h-1.369V8.175h4.893v1.481h-1.369v5.393h1.369V16.53z"/>
			<path fill="#010101" d="M128.204,16.876h-5.583v-2.172h1.369v-4.703h-1.369V7.83h5.583v2.171h-1.369v4.703h1.369V16.876z
				 M123.311,16.186h4.204v-0.792h-1.369V9.312h1.369V8.52h-4.204v0.792h1.369v6.082h-1.369V16.186z"/>
		</g>
		<g>
			<path fill="#FFFFFF" d="M139.498,16.53h-2.226l-0.581-1.689h-3.093l-0.581,1.689h-2.172l3.086-8.355h2.48L139.498,16.53z
				 M136.173,13.309l-1.028-2.993l-1.027,2.993H136.173z"/>
			<path fill="#010101" d="M139.992,16.876h-2.965l-0.582-1.69h-2.601l-0.582,1.69h-2.913l3.342-9.046h2.961L139.992,16.876z
				 M137.519,16.186h1.485l-2.832-7.666h-2l-2.832,7.666h1.431l0.582-1.688h3.585L137.519,16.186z M136.656,13.653h-3.022
				l1.511-4.398L136.656,13.653z M134.6,12.964h1.09l-0.545-1.587L134.6,12.964z"/>
		</g>
		<g>
			<path fill="#FFFFFF" d="M149.549,13.904c0,0.822-0.35,1.491-1.047,2.006s-1.646,0.771-2.842,0.771
				c-0.692,0-1.296-0.061-1.811-0.183c-0.514-0.121-0.996-0.275-1.444-0.463v-2.004h0.235c0.445,0.356,0.943,0.629,1.496,0.82
				c0.551,0.19,1.082,0.286,1.59,0.286c0.131,0,0.303-0.012,0.517-0.034c0.214-0.021,0.388-0.059,0.522-0.112
				c0.164-0.066,0.301-0.151,0.406-0.252c0.107-0.101,0.16-0.251,0.16-0.449c0-0.183-0.078-0.341-0.232-0.474
				c-0.155-0.133-0.383-0.235-0.682-0.307c-0.314-0.074-0.647-0.144-0.996-0.209c-0.35-0.066-0.679-0.149-0.985-0.251
				c-0.703-0.229-1.21-0.538-1.519-0.929s-0.463-0.876-0.463-1.456c0-0.778,0.35-1.413,1.047-1.905
				c0.698-0.491,1.596-0.738,2.691-0.738c0.55,0,1.093,0.054,1.629,0.161c0.537,0.106,1.002,0.239,1.395,0.4v1.925h-0.229
				c-0.337-0.27-0.749-0.494-1.237-0.676s-0.986-0.271-1.496-0.271c-0.18,0-0.357,0.012-0.535,0.036s-0.35,0.069-0.514,0.137
				c-0.146,0.056-0.271,0.142-0.375,0.256c-0.105,0.114-0.158,0.243-0.158,0.39c0,0.221,0.084,0.39,0.253,0.508
				c0.169,0.117,0.486,0.226,0.954,0.323c0.307,0.063,0.602,0.124,0.884,0.185s0.587,0.143,0.911,0.248
				c0.641,0.208,1.112,0.494,1.418,0.854C149.396,12.858,149.549,13.328,149.549,13.904z"/>
			<path fill="#010101" d="M145.66,17.026c-0.715,0-1.352-0.064-1.89-0.191c-0.528-0.125-1.033-0.286-1.499-0.48l-0.211-0.088
				v-2.578h0.701l0.094,0.075c0.412,0.329,0.881,0.585,1.394,0.763s1.011,0.268,1.478,0.268c0.122,0,0.282-0.011,0.48-0.031
				c0.183-0.02,0.328-0.05,0.434-0.092c0.118-0.048,0.219-0.109,0.294-0.181c0.044-0.042,0.054-0.131,0.054-0.199
				c0-0.058-0.014-0.127-0.113-0.212c-0.112-0.097-0.293-0.175-0.537-0.232c-0.31-0.073-0.636-0.143-0.98-0.207
				c-0.361-0.068-0.709-0.156-1.029-0.261c-0.764-0.248-1.33-0.599-1.68-1.043c-0.357-0.451-0.537-1.013-0.537-1.67
				c0-0.894,0.4-1.629,1.192-2.187c0.753-0.531,1.726-0.801,2.89-0.801c0.569,0,1.141,0.056,1.697,0.166
				c0.555,0.11,1.045,0.252,1.457,0.42l0.215,0.088v2.501h-0.695l-0.096-0.075c-0.307-0.246-0.69-0.455-1.141-0.622
				c-0.605-0.225-1.243-0.303-1.865-0.218c-0.148,0.021-0.293,0.059-0.43,0.115c-0.104,0.039-0.184,0.094-0.252,0.17
				c-0.047,0.051-0.066,0.097-0.066,0.156c0,0.133,0.051,0.188,0.105,0.226c0.072,0.051,0.275,0.153,0.826,0.268l0.885,0.185
				c0.293,0.062,0.609,0.148,0.946,0.257c0.698,0.229,1.229,0.552,1.574,0.962c0.357,0.423,0.539,0.971,0.539,1.628
				c0,0.935-0.399,1.703-1.187,2.284C147.952,16.744,146.927,17.026,145.66,17.026z M142.75,15.804
				c0.371,0.142,0.766,0.263,1.18,0.359c0.486,0.115,1.068,0.174,1.73,0.174c1.115,0,2.004-0.236,2.637-0.704
				c0.611-0.45,0.907-1.016,0.907-1.729c0-0.497-0.123-0.884-0.376-1.184c-0.263-0.31-0.687-0.563-1.261-0.751
				c-0.312-0.1-0.604-0.18-0.876-0.237l-0.883-0.185c-0.526-0.109-0.87-0.229-1.082-0.378c-0.261-0.183-0.399-0.456-0.399-0.79
				c0-0.23,0.086-0.446,0.248-0.623c0.141-0.153,0.312-0.27,0.507-0.345c0.184-0.074,0.385-0.128,0.59-0.157
				c0.732-0.1,1.486-0.01,2.198,0.255c0.372,0.139,0.708,0.304,1.003,0.493V8.821c-0.325-0.117-0.7-0.217-1.117-0.301
				c-0.513-0.102-1.038-0.152-1.562-0.152c-1.02,0-1.857,0.227-2.492,0.675c-0.606,0.427-0.9,0.958-0.9,1.623
				c0,0.505,0.127,0.911,0.389,1.242c0.264,0.335,0.72,0.61,1.354,0.814c0.293,0.097,0.609,0.177,0.941,0.239
				c0.355,0.067,0.693,0.138,1.013,0.214c0.356,0.085,0.627,0.209,0.826,0.379c0.231,0.198,0.354,0.453,0.354,0.736
				c0,0.296-0.09,0.531-0.268,0.699c-0.138,0.13-0.31,0.239-0.513,0.321c-0.17,0.066-0.37,0.11-0.617,0.137
				c-0.229,0.023-0.412,0.035-0.553,0.035c-0.544,0-1.117-0.104-1.703-0.306c-0.457-0.157-0.883-0.371-1.273-0.636V15.804z"/>
		</g>
	</g>
	<g>
		<g>
			<path fill="#010101" d="M64.13,55.37c0,0.484-0.206,0.878-0.615,1.18c-0.41,0.303-0.967,0.453-1.671,0.453
				c-0.407,0-0.761-0.035-1.063-0.106s-0.585-0.162-0.849-0.272v-1.178h0.138c0.261,0.209,0.555,0.369,0.879,0.482
				c0.324,0.111,0.637,0.168,0.936,0.168c0.077,0,0.178-0.007,0.303-0.02c0.125-0.014,0.228-0.035,0.307-0.066
				c0.096-0.04,0.176-0.089,0.239-0.148s0.094-0.147,0.094-0.264c0-0.108-0.046-0.201-0.137-0.279s-0.225-0.138-0.4-0.18
				c-0.185-0.044-0.38-0.085-0.585-0.123c-0.206-0.039-0.399-0.088-0.58-0.147c-0.413-0.134-0.711-0.316-0.892-0.546
				c-0.181-0.23-0.272-0.515-0.272-0.855c0-0.457,0.205-0.831,0.615-1.12s0.938-0.434,1.582-0.434c0.323,0,0.643,0.03,0.958,0.094
				c0.315,0.062,0.588,0.142,0.819,0.235v1.132H63.8c-0.198-0.158-0.44-0.29-0.727-0.397c-0.287-0.107-0.58-0.16-0.879-0.16
				c-0.105,0-0.21,0.008-0.315,0.021c-0.104,0.015-0.205,0.042-0.302,0.081c-0.085,0.032-0.16,0.082-0.221,0.15
				c-0.062,0.066-0.092,0.143-0.092,0.229c0,0.13,0.049,0.229,0.148,0.298c0.099,0.07,0.286,0.134,0.561,0.19
				c0.181,0.038,0.354,0.074,0.52,0.108c0.166,0.036,0.345,0.084,0.536,0.146c0.376,0.123,0.653,0.291,0.833,0.502
				C64.041,54.757,64.13,55.032,64.13,55.37z"/>
		</g>
		<g>
			<path fill="#010101" d="M69.774,54.46c0,0.783-0.224,1.405-0.673,1.865c-0.448,0.461-1.068,0.691-1.86,0.691
				c-0.79,0-1.408-0.23-1.857-0.691c-0.448-0.46-0.673-1.082-0.673-1.865c0-0.789,0.225-1.413,0.673-1.872
				c0.449-0.458,1.067-0.687,1.857-0.687c0.788,0,1.407,0.229,1.857,0.687C69.549,53.047,69.774,53.671,69.774,54.46z
				 M68.095,55.704c0.123-0.149,0.214-0.326,0.274-0.529c0.059-0.204,0.089-0.442,0.089-0.717c0-0.295-0.035-0.546-0.102-0.754
				c-0.068-0.205-0.157-0.373-0.268-0.501c-0.112-0.132-0.241-0.228-0.387-0.286c-0.146-0.06-0.298-0.089-0.457-0.089
				c-0.16,0-0.312,0.028-0.454,0.085c-0.142,0.057-0.272,0.152-0.391,0.284c-0.11,0.124-0.2,0.293-0.269,0.51
				c-0.069,0.216-0.104,0.468-0.104,0.753c0,0.293,0.033,0.541,0.1,0.748c0.067,0.205,0.156,0.373,0.266,0.503
				s0.239,0.225,0.386,0.286c0.147,0.062,0.303,0.093,0.465,0.093c0.163,0,0.317-0.032,0.465-0.094
				C67.857,55.934,67.985,55.836,68.095,55.704z"/>
		</g>
		<g>
			<path fill="#010101" d="M72.961,57.011c-0.365,0-0.703-0.055-1.012-0.162s-0.574-0.269-0.796-0.482
				c-0.222-0.213-0.394-0.479-0.516-0.798c-0.122-0.318-0.183-0.687-0.183-1.104c0-0.389,0.059-0.742,0.174-1.059
				c0.117-0.317,0.286-0.588,0.508-0.816c0.213-0.217,0.478-0.385,0.793-0.504c0.316-0.118,0.66-0.178,1.034-0.178
				c0.207,0,0.393,0.012,0.559,0.035c0.167,0.023,0.32,0.053,0.46,0.091c0.147,0.042,0.281,0.089,0.401,0.14
				c0.12,0.052,0.225,0.1,0.315,0.145v1.189h-0.145c-0.062-0.053-0.139-0.115-0.232-0.186c-0.094-0.073-0.2-0.145-0.318-0.215
				c-0.121-0.07-0.252-0.129-0.393-0.176c-0.141-0.05-0.292-0.073-0.452-0.073c-0.178,0-0.348,0.028-0.508,0.083
				c-0.161,0.057-0.309,0.149-0.445,0.279c-0.13,0.125-0.234,0.291-0.315,0.497s-0.12,0.456-0.12,0.751
				c0,0.307,0.043,0.562,0.13,0.77c0.087,0.207,0.196,0.369,0.328,0.487c0.134,0.12,0.284,0.206,0.449,0.259
				c0.165,0.051,0.327,0.077,0.488,0.077c0.154,0,0.306-0.023,0.457-0.069c0.15-0.046,0.289-0.108,0.417-0.188
				c0.107-0.062,0.208-0.131,0.3-0.203s0.168-0.135,0.227-0.188h0.132v1.176c-0.123,0.054-0.241,0.105-0.353,0.154
				c-0.112,0.048-0.229,0.09-0.353,0.125c-0.16,0.046-0.311,0.082-0.452,0.105C73.4,56.997,73.207,57.011,72.961,57.011z"/>
		</g>
		<g>
			<path fill="#010101" d="M78.284,56.914h-2.875v-0.87h0.805v-3.17h-0.805v-0.871h2.875v0.871h-0.804v3.17h0.804V56.914z"/>
		</g>
		<g>
			<path fill="#010101" d="M82.869,56.914h-3.552v-4.911h3.552v0.949h-2.292V53.8h2.127v0.951h-2.127v1.214h2.292V56.914z"/>
		</g>
		<g>
			<path fill="#010101" d="M88.572,54.464c0,0.457-0.104,0.867-0.313,1.229c-0.208,0.361-0.473,0.639-0.792,0.833
				c-0.24,0.145-0.503,0.246-0.789,0.304c-0.286,0.057-0.625,0.085-1.016,0.085h-1.732v-4.911h1.781c0.4,0,0.746,0.033,1.037,0.101
				c0.29,0.067,0.534,0.162,0.732,0.285c0.338,0.208,0.605,0.485,0.8,0.837C88.475,53.575,88.572,53.989,88.572,54.464z
				 M87.263,54.453c0-0.323-0.059-0.599-0.176-0.829c-0.118-0.229-0.304-0.41-0.56-0.539c-0.13-0.064-0.262-0.107-0.397-0.131
				c-0.136-0.022-0.34-0.034-0.612-0.034h-0.32v3.074h0.32c0.301,0,0.522-0.015,0.663-0.042c0.141-0.026,0.278-0.077,0.412-0.149
				c0.231-0.132,0.4-0.308,0.508-0.529C87.208,55.053,87.263,54.779,87.263,54.453z"/>
		</g>
		<g>
			<path fill="#010101" d="M94.077,56.914h-1.308l-0.342-0.992h-1.818l-0.342,0.992h-1.277l1.814-4.911h1.458L94.077,56.914z
				 M92.123,55.021l-0.604-1.76l-0.605,1.76H92.123z"/>
		</g>
		<g>
			<path fill="#010101" d="M99.424,54.464c0,0.457-0.104,0.867-0.313,1.229c-0.209,0.361-0.473,0.639-0.792,0.833
				c-0.24,0.145-0.502,0.246-0.788,0.304c-0.286,0.057-0.625,0.085-1.016,0.085h-1.731v-4.911h1.781c0.4,0,0.746,0.033,1.036,0.101
				c0.29,0.067,0.534,0.162,0.732,0.285c0.339,0.208,0.605,0.485,0.8,0.837C99.327,53.575,99.424,53.989,99.424,54.464z
				 M98.115,54.453c0-0.323-0.059-0.599-0.176-0.829c-0.118-0.229-0.304-0.41-0.559-0.539c-0.13-0.064-0.262-0.107-0.397-0.131
				c-0.135-0.022-0.339-0.034-0.612-0.034h-0.32v3.074h0.32c0.301,0,0.522-0.015,0.663-0.042c0.141-0.026,0.278-0.077,0.412-0.149
				c0.231-0.132,0.4-0.308,0.508-0.529C98.061,55.053,98.115,54.779,98.115,54.453z"/>
		</g>
		<g>
			<path fill="#010101" d="M107.238,56.914h-1.309l-0.342-0.992h-1.817l-0.343,0.992h-1.276l1.815-4.911h1.457L107.238,56.914z
				 M105.283,55.021l-0.604-1.76l-0.605,1.76H105.283z"/>
		</g>
		<g>
			<path fill="#010101" d="M112.41,56.914h-1.22l-2.085-3.371v3.371h-1.162v-4.911h1.516l1.791,2.813v-2.813h1.16V56.914z"/>
		</g>
		<g>
			<path fill="#010101" d="M118.44,54.46c0,0.783-0.225,1.405-0.673,1.865c-0.449,0.461-1.068,0.691-1.86,0.691
				c-0.79,0-1.409-0.23-1.857-0.691c-0.448-0.46-0.673-1.082-0.673-1.865c0-0.789,0.225-1.413,0.673-1.872
				c0.448-0.458,1.067-0.687,1.857-0.687c0.787,0,1.406,0.229,1.856,0.687C118.215,53.047,118.44,53.671,118.44,54.46z
				 M116.762,55.704c0.122-0.149,0.215-0.326,0.273-0.529c0.059-0.204,0.089-0.442,0.089-0.717c0-0.295-0.034-0.546-0.103-0.754
				c-0.068-0.205-0.157-0.373-0.268-0.501c-0.111-0.132-0.24-0.228-0.387-0.286c-0.146-0.06-0.299-0.089-0.457-0.089
				c-0.16,0-0.312,0.028-0.453,0.085c-0.143,0.057-0.272,0.152-0.392,0.284c-0.11,0.124-0.199,0.293-0.269,0.51
				c-0.069,0.216-0.104,0.468-0.104,0.753c0,0.293,0.033,0.541,0.101,0.748c0.067,0.205,0.155,0.373,0.265,0.503
				c0.11,0.13,0.239,0.225,0.387,0.286c0.146,0.062,0.303,0.093,0.465,0.093c0.163,0,0.318-0.032,0.465-0.094
				C116.523,55.934,116.651,55.836,116.762,55.704z"/>
		</g>
		<g>
			<path fill="#010101" d="M123.873,56.914h-1.221l-2.084-3.371v3.371h-1.162v-4.911h1.514l1.792,2.813v-2.813h1.161V56.914z"/>
		</g>
		<g>
			<path fill="#010101" d="M127.781,56.914h-2.876v-0.87h0.806v-3.17h-0.806v-0.871h2.876v0.871h-0.805v3.17h0.805V56.914z"/>
		</g>
		<g>
			<path fill="#010101" d="M133.963,56.914h-1.26v-3.288l-0.91,2.134h-0.875l-0.91-2.134v3.288h-1.193v-4.911h1.471l1.105,2.465
				l1.101-2.465h1.472V56.914z"/>
		</g>
		<g>
			<path fill="#010101" d="M139.756,56.914h-1.309l-0.342-0.992h-1.818l-0.342,0.992h-1.277l1.814-4.911h1.459L139.756,56.914z
				 M137.801,55.021l-0.604-1.76l-0.604,1.76H137.801z"/>
		</g>
	</g>
	<g>
		<g>
			<path fill="#FFFFFF" d="M13.068,74.297H8.654V72.96h1.235v-4.865H8.654v-1.336h4.415v1.336h-1.235v4.865h1.235V74.297z"/>
			<path fill="#010101" d="M13.413,74.641H8.309v-2.025h1.236v-4.176H8.309v-2.025h5.104v2.025h-1.235v4.176h1.235V74.641z
				 M8.998,73.952h3.726v-0.646h-1.235V67.75h1.235v-0.646H8.998v0.646h1.236v5.556H8.998V73.952z"/>
		</g>
		<g>
			<path fill="#FFFFFF" d="M22.556,74.297h-1.934v-5.048l-1.397,3.276h-1.342l-1.397-3.276v5.048h-1.833v-7.538h2.258l1.696,3.781
				l1.691-3.781h2.258V74.297z"/>
			<path fill="#010101" d="M22.9,74.641h-2.623v-3.704l-0.825,1.933h-1.797l-0.825-1.933v3.704h-2.522v-8.227h2.826l1.472,3.283
				l1.468-3.283H22.9V74.641z M20.967,73.952h1.244v-6.849h-1.69l-1.914,4.28l-1.919-4.28h-1.69v6.849h1.143v-4.703l0.662-0.134
				l1.308,3.065h0.886l1.309-3.065l0.662,0.134V73.952z"/>
		</g>
		<g>
			<path fill="#FFFFFF" d="M30.702,69.138c0,0.338-0.06,0.668-0.177,0.99c-0.118,0.322-0.287,0.594-0.506,0.812
				c-0.301,0.297-0.636,0.521-1.005,0.674c-0.37,0.15-0.83,0.227-1.38,0.227h-1.209v2.456h-1.944v-7.538h3.2
				c0.479,0,0.883,0.041,1.212,0.124s0.62,0.206,0.873,0.372c0.304,0.199,0.536,0.454,0.696,0.764
				C30.621,68.33,30.702,68.702,30.702,69.138z M28.691,69.181c0-0.212-0.058-0.395-0.172-0.548c-0.115-0.153-0.249-0.26-0.4-0.321
				c-0.203-0.08-0.4-0.125-0.593-0.133c-0.192-0.008-0.449-0.013-0.769-0.013h-0.334v2.253h0.557c0.331,0,0.603-0.02,0.818-0.061
				c0.214-0.04,0.394-0.121,0.539-0.243c0.125-0.106,0.215-0.235,0.271-0.386S28.691,69.396,28.691,69.181z"/>
			<path fill="#010101" d="M26.769,74.641h-2.634v-8.227h3.544c0.505,0,0.941,0.045,1.296,0.134
				c0.364,0.092,0.692,0.232,0.978,0.418c0.354,0.232,0.627,0.533,0.814,0.896c0.185,0.358,0.279,0.788,0.279,1.276
				c0,0.376-0.067,0.75-0.199,1.108c-0.134,0.368-0.332,0.685-0.586,0.938c-0.333,0.328-0.708,0.579-1.118,0.748
				c-0.41,0.168-0.918,0.253-1.511,0.253h-0.865V74.641z M24.824,73.952h1.255v-2.455h1.554c0.502,0,0.922-0.068,1.25-0.203
				c0.325-0.133,0.626-0.335,0.893-0.599c0.182-0.182,0.325-0.413,0.425-0.687c0.104-0.283,0.156-0.576,0.156-0.871
				c0-0.377-0.068-0.7-0.202-0.961c-0.133-0.259-0.323-0.466-0.579-0.635c-0.22-0.143-0.478-0.252-0.768-0.325
				c-0.3-0.075-0.68-0.113-1.128-0.113h-2.855V73.952z M26.98,70.764h-0.901v-2.942h0.679c0.326,0,0.588,0.004,0.783,0.013
				c0.232,0.011,0.469,0.063,0.707,0.158c0.21,0.084,0.395,0.229,0.547,0.435c0.161,0.214,0.241,0.467,0.241,0.754
				c0,0.256-0.036,0.48-0.105,0.668c-0.076,0.205-0.2,0.383-0.369,0.527c-0.194,0.163-0.428,0.27-0.701,0.321
				C27.624,70.742,27.336,70.764,26.98,70.764z M26.769,70.073h0.212c0.308,0,0.562-0.018,0.754-0.054
				c0.157-0.03,0.282-0.085,0.382-0.169c0.077-0.065,0.133-0.146,0.168-0.241c0.041-0.111,0.062-0.255,0.062-0.429
				c0-0.137-0.034-0.248-0.104-0.342c-0.076-0.102-0.159-0.17-0.252-0.207c-0.165-0.065-0.326-0.103-0.479-0.109
				c-0.185-0.008-0.434-0.012-0.743-0.012V70.073z"/>
		</g>
		<g>
			<path fill="#FFFFFF" d="M39.409,70.53c0,1.201-0.344,2.155-1.033,2.863c-0.688,0.707-1.64,1.06-2.855,1.06
				c-1.212,0-2.162-0.353-2.851-1.06c-0.688-0.708-1.033-1.662-1.033-2.863c0-1.212,0.344-2.17,1.033-2.873
				c0.688-0.704,1.639-1.056,2.851-1.056c1.208,0,2.158,0.352,2.85,1.056C39.063,68.36,39.409,69.318,39.409,70.53z M36.833,72.438
				c0.189-0.229,0.329-0.5,0.42-0.812c0.091-0.312,0.137-0.679,0.137-1.101c0-0.452-0.052-0.837-0.157-1.154s-0.241-0.574-0.41-0.77
				c-0.173-0.202-0.371-0.35-0.596-0.44c-0.224-0.091-0.458-0.137-0.701-0.137c-0.246,0-0.478,0.043-0.695,0.131
				c-0.218,0.088-0.418,0.233-0.601,0.436c-0.168,0.189-0.306,0.45-0.412,0.783c-0.106,0.332-0.16,0.717-0.16,1.156
				c0,0.449,0.051,0.831,0.154,1.146c0.103,0.316,0.239,0.573,0.408,0.771c0.168,0.199,0.366,0.347,0.592,0.441
				c0.226,0.094,0.464,0.142,0.713,0.142c0.25,0,0.488-0.048,0.715-0.145C36.466,72.791,36.664,72.642,36.833,72.438z"/>
			<path fill="#010101" d="M35.521,74.799c-1.302,0-2.345-0.392-3.098-1.165c-0.75-0.771-1.13-1.814-1.13-3.104
				c0-1.3,0.381-2.347,1.131-3.114c0.753-0.769,1.795-1.159,3.097-1.159c1.298,0,2.34,0.391,3.096,1.159
				c0.754,0.767,1.136,1.814,1.136,3.114c0,1.289-0.38,2.334-1.13,3.104C37.871,74.407,36.827,74.799,35.521,74.799z M35.521,66.946
				c-1.125,0-1.978,0.312-2.604,0.952c-0.62,0.634-0.934,1.52-0.934,2.632c0,1.119,0.305,1.977,0.934,2.622
				c0.627,0.645,1.479,0.957,2.604,0.957c1.128,0,1.981-0.312,2.608-0.957c0.629-0.646,0.935-1.503,0.935-2.622
				c0-1.112-0.316-1.998-0.939-2.631C37.496,67.258,36.644,66.946,35.521,66.946z M35.526,73.376c-0.294,0-0.579-0.057-0.846-0.168
				c-0.277-0.116-0.521-0.297-0.724-0.537c-0.196-0.232-0.356-0.53-0.472-0.888c-0.113-0.347-0.171-0.769-0.171-1.253
				c0-0.473,0.06-0.897,0.176-1.262c0.121-0.377,0.283-0.682,0.484-0.907c0.217-0.241,0.462-0.418,0.728-0.525
				c0.516-0.207,1.124-0.21,1.656,0.005c0.275,0.112,0.521,0.293,0.728,0.537c0.196,0.227,0.356,0.525,0.475,0.885
				c0.116,0.352,0.175,0.775,0.175,1.263c0,0.451-0.051,0.854-0.151,1.197c-0.104,0.356-0.267,0.671-0.485,0.936
				c-0.205,0.245-0.448,0.429-0.723,0.546C36.107,73.317,35.821,73.376,35.526,73.376z M35.526,68.369
				c-0.203,0-0.389,0.035-0.566,0.106c-0.168,0.067-0.327,0.184-0.473,0.346c-0.134,0.151-0.25,0.372-0.34,0.656
				c-0.095,0.298-0.143,0.651-0.143,1.053c0,0.411,0.046,0.761,0.138,1.039c0.088,0.271,0.204,0.492,0.343,0.656
				c0.134,0.159,0.285,0.271,0.462,0.346c0.367,0.154,0.793,0.154,1.16-0.002c0.176-0.075,0.327-0.189,0.461-0.352
				c0.157-0.189,0.277-0.422,0.354-0.688c0.082-0.28,0.123-0.619,0.123-1.005c0-0.413-0.047-0.766-0.14-1.048
				c-0.09-0.271-0.206-0.491-0.344-0.65c-0.139-0.164-0.29-0.275-0.464-0.347C35.913,68.405,35.726,68.369,35.526,68.369z"/>
		</g>
		<g>
			<path fill="#FFFFFF" d="M48.152,74.297h-2.375l-2.051-2.765h-0.9v2.765h-1.934v-7.538h3.26c0.446,0,0.829,0.025,1.149,0.076
				c0.32,0.05,0.621,0.16,0.901,0.329c0.283,0.168,0.509,0.387,0.676,0.655c0.167,0.269,0.25,0.605,0.25,1.01
				c0,0.557-0.129,1.01-0.387,1.361c-0.258,0.352-0.627,0.644-1.106,0.876L48.152,74.297z M45.12,69.067
				c0-0.189-0.039-0.351-0.116-0.486c-0.078-0.135-0.211-0.241-0.4-0.319c-0.132-0.054-0.285-0.087-0.461-0.099
				s-0.379-0.018-0.612-0.018h-0.704v2.03h0.597c0.311,0,0.571-0.015,0.78-0.046c0.209-0.03,0.385-0.1,0.526-0.207
				c0.135-0.105,0.234-0.221,0.296-0.348C45.089,69.45,45.12,69.279,45.12,69.067z"/>
			<path fill="#010101" d="M48.858,74.641h-3.254l-2.05-2.764h-0.382v2.764h-2.624v-8.227h3.605c0.462,0,0.867,0.026,1.203,0.079
				c0.364,0.059,0.709,0.184,1.025,0.375c0.329,0.196,0.594,0.454,0.791,0.769c0.201,0.322,0.303,0.724,0.303,1.192
				c0,0.629-0.153,1.155-0.454,1.565c-0.219,0.298-0.509,0.559-0.864,0.779L48.858,74.641z M45.952,73.952h1.495l-2.344-3.01
				l0.383-0.186c0.426-0.207,0.755-0.467,0.979-0.771c0.212-0.289,0.32-0.679,0.32-1.157c0-0.338-0.067-0.616-0.199-0.828
				c-0.139-0.223-0.322-0.4-0.559-0.541c-0.242-0.146-0.503-0.241-0.779-0.285c-0.3-0.047-0.669-0.071-1.095-0.071h-2.916v6.849
				h1.245v-2.765h1.419L45.952,73.952z M43.424,70.521h-0.942v-2.72h1.048c0.242,0,0.453,0.007,0.636,0.019
				c0.213,0.015,0.404,0.056,0.568,0.123c0.26,0.107,0.452,0.265,0.568,0.467c0.107,0.188,0.162,0.408,0.162,0.658
				c0,0.269-0.042,0.485-0.128,0.661c-0.087,0.174-0.219,0.331-0.394,0.467c-0.192,0.145-0.422,0.237-0.688,0.276
				C44.028,70.504,43.756,70.521,43.424,70.521z M43.171,69.831h0.252c0.291,0,0.534-0.014,0.73-0.042
				c0.15-0.022,0.274-0.068,0.368-0.141c0.089-0.069,0.156-0.146,0.195-0.226c0.026-0.053,0.058-0.158,0.058-0.355
				c0-0.128-0.024-0.232-0.071-0.314c-0.038-0.067-0.116-0.124-0.232-0.173c-0.096-0.038-0.215-0.063-0.354-0.073
				c-0.168-0.011-0.364-0.016-0.589-0.016h-0.359V69.831z"/>
		</g>
		<g>
			<path fill="#FFFFFF" d="M54.901,68.217h-2.354v6.08h-1.944v-6.08h-2.354v-1.458h6.652V68.217z"/>
			<path fill="#010101" d="M52.892,74.641h-2.633v-6.079h-2.354v-2.147h7.342v2.147h-2.354V74.641z M50.948,73.952h1.254v-6.08
				h2.354v-0.769h-5.963v0.769h2.354V73.952z"/>
		</g>
		<g>
			<path fill="#FFFFFF" d="M63.038,74.297h-2.008l-0.525-1.523h-2.789l-0.525,1.523h-1.958l2.784-7.538h2.238L63.038,74.297z
				 M60.037,71.392l-0.927-2.701l-0.927,2.701H60.037z"/>
			<path fill="#010101" d="M63.532,74.641h-2.749l-0.525-1.522h-2.297l-0.525,1.522h-2.7l3.039-8.227h2.718L63.532,74.641z
				 M61.275,73.952h1.267l-2.53-6.849h-1.758l-2.53,6.849h1.218l0.525-1.524h3.281L61.275,73.952z M60.52,71.735h-2.821l1.411-4.107
				L60.52,71.735z M58.665,71.046h0.889l-0.444-1.294L58.665,71.046z"/>
		</g>
		<g>
			<path fill="#FFFFFF" d="M67.527,74.443c-0.56,0-1.077-0.083-1.552-0.248c-0.474-0.165-0.882-0.411-1.223-0.739
				c-0.341-0.327-0.605-0.735-0.792-1.225c-0.188-0.49-0.281-1.055-0.281-1.696c0-0.597,0.089-1.139,0.268-1.625
				c0.179-0.485,0.439-0.903,0.78-1.251c0.327-0.334,0.734-0.592,1.218-0.774c0.484-0.182,1.013-0.272,1.587-0.272
				c0.317,0,0.604,0.018,0.858,0.053s0.49,0.082,0.706,0.139c0.226,0.064,0.431,0.137,0.615,0.215
				c0.184,0.08,0.345,0.154,0.483,0.221v1.828h-0.223c-0.095-0.081-0.213-0.176-0.357-0.287c-0.143-0.111-0.306-0.221-0.488-0.328
				c-0.186-0.107-0.386-0.197-0.602-0.271s-0.447-0.11-0.694-0.11c-0.273,0-0.533,0.042-0.78,0.129
				c-0.246,0.085-0.474,0.228-0.683,0.427c-0.199,0.191-0.36,0.445-0.483,0.762c-0.124,0.316-0.185,0.701-0.185,1.152
				c0,0.472,0.066,0.866,0.2,1.182c0.133,0.317,0.301,0.566,0.503,0.749c0.206,0.186,0.436,0.317,0.688,0.396
				c0.253,0.08,0.503,0.119,0.75,0.119c0.236,0,0.47-0.035,0.701-0.105c0.231-0.07,0.445-0.167,0.641-0.287
				c0.166-0.097,0.319-0.201,0.461-0.312c0.142-0.11,0.258-0.207,0.35-0.287h0.202v1.802c-0.189,0.085-0.37,0.164-0.542,0.238
				s-0.353,0.139-0.542,0.192c-0.247,0.071-0.477,0.125-0.693,0.162S67.905,74.443,67.527,74.443z"/>
			<path fill="#010101" d="M67.527,74.788c-0.596,0-1.157-0.09-1.665-0.268c-0.519-0.181-0.973-0.455-1.348-0.815
				c-0.376-0.36-0.671-0.815-0.875-1.351c-0.202-0.525-0.304-1.139-0.304-1.819c0-0.635,0.098-1.222,0.29-1.744
				c0.195-0.529,0.483-0.991,0.856-1.372c0.362-0.369,0.813-0.657,1.343-0.856c0.521-0.196,1.096-0.296,1.708-0.296
				c0.333,0,0.638,0.019,0.906,0.057c0.269,0.038,0.518,0.086,0.748,0.147c0.246,0.07,0.465,0.147,0.662,0.231
				c0.19,0.082,0.355,0.158,0.498,0.228l0.195,0.094v2.389h-0.694l-0.097-0.082c-0.091-0.079-0.206-0.171-0.344-0.277
				c-0.133-0.104-0.285-0.204-0.454-0.304c-0.164-0.094-0.345-0.176-0.538-0.242c-0.382-0.131-0.857-0.12-1.248,0.018
				c-0.202,0.069-0.385,0.185-0.56,0.352c-0.16,0.153-0.295,0.369-0.4,0.638c-0.106,0.274-0.161,0.621-0.161,1.026
				c0,0.424,0.058,0.777,0.173,1.049c0.112,0.268,0.252,0.479,0.416,0.625c0.17,0.153,0.354,0.26,0.561,0.324
				c0.428,0.134,0.844,0.134,1.247,0.012c0.202-0.062,0.391-0.146,0.561-0.251c0.157-0.093,0.299-0.188,0.429-0.29
				c0.135-0.105,0.247-0.197,0.333-0.274l0.098-0.086h0.678v2.37l-0.75,0.332c-0.186,0.079-0.381,0.148-0.584,0.207
				c-0.259,0.074-0.502,0.13-0.729,0.17C68.24,74.769,67.93,74.788,67.527,74.788z M67.532,66.957c-0.529,0-1.022,0.084-1.465,0.251
				c-0.435,0.164-0.803,0.396-1.093,0.692c-0.305,0.312-0.542,0.691-0.703,1.129c-0.164,0.445-0.247,0.952-0.247,1.506
				c0,0.597,0.087,1.126,0.259,1.573c0.168,0.439,0.406,0.81,0.709,1.1c0.303,0.291,0.672,0.514,1.097,0.662
				c0.435,0.151,0.919,0.229,1.438,0.229c0.358,0,0.638-0.017,0.832-0.051c0.205-0.035,0.424-0.086,0.658-0.154
				c0.175-0.049,0.342-0.108,0.5-0.177l0.333-0.146v-1.014c-0.151,0.118-0.316,0.229-0.493,0.333
				c-0.213,0.133-0.457,0.24-0.715,0.32c-0.533,0.162-1.095,0.16-1.655-0.014c-0.299-0.094-0.573-0.252-0.815-0.47
				c-0.239-0.215-0.438-0.508-0.591-0.87c-0.15-0.357-0.227-0.801-0.227-1.316c0-0.491,0.07-0.921,0.208-1.277
				c0.142-0.361,0.332-0.659,0.565-0.885c0.247-0.234,0.519-0.403,0.81-0.505c0.537-0.188,1.173-0.199,1.698-0.018
				c0.235,0.079,0.458,0.18,0.664,0.298c0.198,0.117,0.373,0.235,0.527,0.354c0.008,0.007,0.016,0.013,0.024,0.02v-1.068
				c-0.085-0.039-0.177-0.08-0.275-0.123c-0.171-0.072-0.362-0.14-0.573-0.199c-0.198-0.053-0.419-0.096-0.66-0.129
				C68.106,66.974,67.833,66.957,67.532,66.957z"/>
		</g>
		<g>
			<path fill="#FFFFFF" d="M75.698,74.297h-4.415V72.96h1.235v-4.865h-1.235v-1.336h4.415v1.336h-1.235v4.865h1.235V74.297z"/>
			<path fill="#010101" d="M76.043,74.641h-5.104v-2.025h1.235v-4.176h-1.235v-2.025h5.104v2.025h-1.235v4.176h1.235V74.641z
				 M71.628,73.952h3.726v-0.646h-1.236V67.75h1.236v-0.646h-3.726v0.646h1.235v5.556h-1.235V73.952z"/>
		</g>
		<g>
			<path fill="#FFFFFF" d="M84.614,70.53c0,1.201-0.344,2.155-1.033,2.863c-0.689,0.707-1.641,1.06-2.855,1.06
				c-1.211,0-2.162-0.353-2.851-1.06c-0.688-0.708-1.032-1.662-1.032-2.863c0-1.212,0.344-2.17,1.032-2.873
				c0.688-0.704,1.639-1.056,2.851-1.056c1.208,0,2.158,0.352,2.851,1.056C84.268,68.36,84.614,69.318,84.614,70.53z M82.037,72.438
				c0.189-0.229,0.329-0.5,0.42-0.812s0.137-0.679,0.137-1.101c0-0.452-0.052-0.837-0.157-1.154c-0.104-0.317-0.241-0.574-0.41-0.77
				c-0.172-0.202-0.371-0.35-0.595-0.44s-0.458-0.137-0.701-0.137c-0.247,0-0.478,0.043-0.696,0.131s-0.418,0.233-0.6,0.436
				c-0.169,0.189-0.306,0.45-0.413,0.783c-0.106,0.332-0.159,0.717-0.159,1.156c0,0.449,0.051,0.831,0.154,1.146
				c0.103,0.316,0.239,0.573,0.407,0.771c0.168,0.199,0.366,0.347,0.592,0.441c0.226,0.094,0.464,0.142,0.714,0.142
				c0.25,0,0.488-0.048,0.714-0.145C81.671,72.791,81.868,72.642,82.037,72.438z"/>
			<path fill="#010101" d="M80.726,74.799c-1.302,0-2.345-0.392-3.098-1.165c-0.75-0.771-1.13-1.814-1.13-3.104
				c0-1.3,0.381-2.347,1.13-3.114c0.753-0.769,1.795-1.159,3.097-1.159c1.298,0,2.34,0.391,3.096,1.159
				c0.754,0.767,1.137,1.814,1.137,3.114c0,1.289-0.38,2.334-1.131,3.104C83.076,74.407,82.032,74.799,80.726,74.799z
				 M80.726,66.946c-1.125,0-1.978,0.312-2.604,0.952c-0.62,0.634-0.934,1.52-0.934,2.632c0,1.119,0.305,1.977,0.934,2.622
				c0.627,0.645,1.479,0.957,2.604,0.957c1.128,0,1.981-0.312,2.608-0.957c0.629-0.646,0.935-1.503,0.935-2.622
				c0-1.112-0.316-1.998-0.939-2.631C82.7,67.258,81.848,66.946,80.726,66.946z M80.731,73.376c-0.294,0-0.579-0.057-0.846-0.168
				c-0.277-0.116-0.52-0.297-0.723-0.537c-0.197-0.232-0.356-0.53-0.472-0.888c-0.113-0.347-0.171-0.769-0.171-1.253
				c0-0.473,0.059-0.897,0.175-1.262c0.121-0.377,0.284-0.682,0.484-0.907c0.218-0.241,0.462-0.418,0.728-0.525
				c0.516-0.207,1.124-0.21,1.656,0.005c0.275,0.112,0.52,0.293,0.728,0.537c0.195,0.227,0.355,0.525,0.474,0.885
				c0.116,0.352,0.175,0.775,0.175,1.263c0,0.451-0.051,0.854-0.151,1.197c-0.104,0.356-0.267,0.671-0.485,0.936
				c-0.205,0.245-0.447,0.429-0.723,0.546C81.312,73.317,81.026,73.376,80.731,73.376z M80.731,68.369
				c-0.204,0-0.389,0.035-0.567,0.106c-0.168,0.067-0.327,0.184-0.473,0.346c-0.135,0.151-0.25,0.372-0.34,0.656
				c-0.095,0.298-0.143,0.651-0.143,1.053c0,0.411,0.046,0.761,0.137,1.039c0.088,0.271,0.204,0.492,0.343,0.656
				c0.134,0.159,0.285,0.271,0.462,0.346c0.368,0.154,0.793,0.154,1.16-0.002c0.176-0.075,0.327-0.189,0.462-0.352
				c0.157-0.189,0.276-0.422,0.354-0.688c0.082-0.28,0.123-0.619,0.123-1.005c0-0.413-0.047-0.766-0.14-1.048
				c-0.09-0.271-0.206-0.491-0.344-0.65c-0.138-0.164-0.29-0.275-0.464-0.347C81.117,68.405,80.931,68.369,80.731,68.369z"/>
		</g>
		<g>
			<path fill="#FFFFFF" d="M92.952,74.297h-1.873l-3.2-5.174v5.174h-1.782v-7.538h2.324l2.749,4.318v-4.318h1.782V74.297z"/>
			<path fill="#010101" d="M93.297,74.641h-2.41l-2.663-4.305v4.305h-2.472v-8.227h2.858l2.214,3.479v-3.479h2.472V74.641z
				 M91.271,73.952h1.336v-6.849h-1.093v5.157l-3.283-5.157h-1.79v6.849h1.093V67.91L91.271,73.952z"/>
		</g>
		<g>
			<path fill="#FFFFFF" d="M101.877,71.675h-3.862v-1.459h3.862V71.675z"/>
			<path fill="#010101" d="M102.223,72.02H97.67v-2.147h4.553V72.02z M98.359,71.33h3.174v-0.769h-3.174V71.33z"/>
		</g>
		<g>
			<path fill="#FFFFFF" d="M112.393,74.297h-5.452v-7.538h5.452v1.458h-3.518v1.301h3.266v1.458h-3.266v1.863h3.518V74.297z"/>
			<path fill="#010101" d="M112.738,74.641h-6.143v-8.227h6.143v2.147h-3.52v0.611h3.266v2.147h-3.266v1.174h3.52V74.641z
				 M107.285,73.952h4.764v-0.769h-3.52v-2.553h3.266v-0.769h-3.266v-1.99h3.52v-0.769h-4.764V73.952z"/>
		</g>
		<g>
			<path fill="#FFFFFF" d="M120.857,74.297h-2.25l-1.621-2.475l-1.656,2.475h-2.147l2.673-3.798l-2.617-3.74h2.244l1.568,2.347
				l1.611-2.347h2.154l-2.63,3.661L120.857,74.297z"/>
			<path fill="#010101" d="M121.514,74.641h-3.093l-1.438-2.194l-1.468,2.194h-2.996l2.916-4.142l-2.858-4.085h3.091l1.388,2.077
				l1.427-2.077h3.008l-2.882,4.011L121.514,74.641z M118.793,73.952h1.408l-2.436-3.536l2.379-3.312h-1.301l-1.797,2.617
				l-1.749-2.617H113.9l2.377,3.396l-2.431,3.453h1.3l1.843-2.754L118.793,73.952z"/>
		</g>
		<g>
			<path fill="#FFFFFF" d="M128.163,69.138c0,0.338-0.06,0.668-0.177,0.99c-0.119,0.322-0.287,0.594-0.507,0.812
				c-0.3,0.297-0.636,0.521-1.005,0.674c-0.369,0.15-0.83,0.227-1.38,0.227h-1.21v2.456h-1.943v-7.538h3.199
				c0.479,0,0.883,0.041,1.213,0.124c0.328,0.083,0.619,0.206,0.873,0.372c0.303,0.199,0.535,0.454,0.695,0.764
				C128.082,68.33,128.163,68.702,128.163,69.138z M126.152,69.181c0-0.212-0.057-0.395-0.172-0.548s-0.248-0.26-0.399-0.321
				c-0.202-0.08-0.399-0.125-0.593-0.133c-0.191-0.008-0.449-0.013-0.77-0.013h-0.334v2.253h0.557c0.331,0,0.604-0.02,0.818-0.061
				c0.214-0.04,0.395-0.121,0.539-0.243c0.125-0.106,0.215-0.235,0.271-0.386S126.152,69.396,126.152,69.181z"/>
			<path fill="#010101" d="M124.23,74.641h-2.635v-8.227h3.545c0.506,0,0.941,0.045,1.297,0.134
				c0.363,0.092,0.692,0.232,0.977,0.418c0.354,0.232,0.628,0.533,0.814,0.896c0.186,0.358,0.279,0.788,0.279,1.276
				c0,0.376-0.067,0.75-0.199,1.108c-0.134,0.368-0.331,0.685-0.586,0.938c-0.332,0.328-0.707,0.579-1.117,0.748
				c-0.41,0.168-0.918,0.253-1.511,0.253h-0.864V74.641z M122.285,73.952h1.255v-2.455h1.555c0.502,0,0.923-0.068,1.249-0.203
				c0.326-0.133,0.627-0.335,0.894-0.599c0.181-0.182,0.325-0.413,0.425-0.687c0.104-0.283,0.156-0.576,0.156-0.871
				c0-0.377-0.068-0.7-0.203-0.961c-0.133-0.259-0.322-0.466-0.578-0.635c-0.22-0.143-0.479-0.252-0.768-0.325
				c-0.301-0.075-0.68-0.113-1.129-0.113h-2.855V73.952z M124.441,70.764h-0.901v-2.942h0.679c0.326,0,0.588,0.004,0.783,0.013
				c0.232,0.011,0.471,0.063,0.707,0.158c0.21,0.084,0.395,0.229,0.548,0.435c0.159,0.214,0.241,0.467,0.241,0.754
				c0,0.256-0.036,0.48-0.105,0.668c-0.076,0.205-0.199,0.383-0.369,0.527c-0.193,0.163-0.428,0.27-0.7,0.321
				C125.086,70.742,124.797,70.764,124.441,70.764z M124.23,70.073h0.211c0.309,0,0.562-0.018,0.754-0.054
				c0.158-0.03,0.282-0.085,0.382-0.169c0.077-0.065,0.134-0.146,0.169-0.241c0.041-0.111,0.062-0.255,0.062-0.429
				c0-0.137-0.033-0.248-0.104-0.342c-0.076-0.102-0.16-0.17-0.252-0.207c-0.165-0.065-0.326-0.103-0.48-0.109
				c-0.186-0.008-0.434-0.012-0.742-0.012V70.073z"/>
		</g>
		<g>
			<path fill="#FFFFFF" d="M136.871,70.53c0,1.201-0.344,2.155-1.033,2.863c-0.688,0.707-1.64,1.06-2.855,1.06
				c-1.211,0-2.161-0.353-2.85-1.06c-0.688-0.708-1.033-1.662-1.033-2.863c0-1.212,0.345-2.17,1.033-2.873
				c0.688-0.704,1.639-1.056,2.85-1.056c1.209,0,2.158,0.352,2.851,1.056C136.525,68.36,136.871,69.318,136.871,70.53z
				 M134.294,72.438c0.188-0.229,0.329-0.5,0.42-0.812s0.138-0.679,0.138-1.101c0-0.452-0.053-0.837-0.158-1.154
				c-0.104-0.317-0.24-0.574-0.41-0.77c-0.172-0.202-0.37-0.35-0.595-0.44c-0.224-0.091-0.458-0.137-0.7-0.137
				c-0.247,0-0.479,0.043-0.696,0.131s-0.419,0.233-0.601,0.436c-0.168,0.189-0.306,0.45-0.412,0.783
				c-0.107,0.332-0.159,0.717-0.159,1.156c0,0.449,0.051,0.831,0.154,1.146c0.103,0.316,0.238,0.573,0.407,0.771
				c0.168,0.199,0.365,0.347,0.592,0.441c0.227,0.094,0.465,0.142,0.715,0.142s0.487-0.048,0.713-0.145
				C133.928,72.791,134.125,72.642,134.294,72.438z"/>
			<path fill="#010101" d="M132.982,74.799c-1.302,0-2.344-0.392-3.098-1.165c-0.75-0.771-1.129-1.814-1.129-3.104
				c0-1.3,0.38-2.347,1.13-3.114c0.753-0.769,1.795-1.159,3.097-1.159c1.299,0,2.34,0.391,3.097,1.159
				c0.755,0.767,1.136,1.814,1.136,3.114c0,1.289-0.379,2.334-1.13,3.104C135.332,74.407,134.288,74.799,132.982,74.799z
				 M132.982,66.946c-1.125,0-1.977,0.312-2.604,0.952c-0.62,0.634-0.934,1.52-0.934,2.632c0,1.119,0.305,1.977,0.934,2.622
				c0.627,0.645,1.479,0.957,2.604,0.957c1.129,0,1.982-0.312,2.609-0.957c0.629-0.646,0.935-1.503,0.935-2.622
				c0-1.112-0.316-1.998-0.939-2.631C134.957,67.258,134.105,66.946,132.982,66.946z M132.988,73.376
				c-0.295,0-0.58-0.057-0.847-0.168c-0.277-0.116-0.521-0.297-0.724-0.537c-0.196-0.232-0.355-0.53-0.472-0.888
				c-0.113-0.347-0.171-0.769-0.171-1.253c0-0.473,0.059-0.897,0.176-1.262c0.12-0.377,0.283-0.682,0.483-0.907
				c0.217-0.241,0.462-0.418,0.728-0.525c0.517-0.207,1.124-0.21,1.656,0.005c0.275,0.112,0.521,0.293,0.729,0.537
				c0.195,0.227,0.355,0.525,0.475,0.885c0.115,0.352,0.174,0.775,0.174,1.263c0,0.451-0.051,0.854-0.15,1.197
				c-0.104,0.356-0.268,0.671-0.484,0.936c-0.205,0.245-0.448,0.429-0.724,0.546C133.568,73.317,133.283,73.376,132.988,73.376z
				 M132.988,68.369c-0.204,0-0.389,0.035-0.568,0.106c-0.167,0.067-0.326,0.184-0.472,0.346c-0.136,0.151-0.25,0.372-0.341,0.656
				c-0.095,0.298-0.143,0.651-0.143,1.053c0,0.411,0.046,0.761,0.137,1.039c0.088,0.271,0.204,0.492,0.344,0.656
				c0.133,0.159,0.284,0.271,0.462,0.346c0.367,0.154,0.794,0.154,1.16-0.002c0.176-0.075,0.327-0.189,0.462-0.352
				c0.156-0.189,0.275-0.422,0.354-0.688c0.082-0.28,0.123-0.619,0.123-1.005c0-0.413-0.047-0.766-0.139-1.048
				c-0.091-0.271-0.207-0.491-0.345-0.65c-0.138-0.164-0.289-0.275-0.464-0.347C133.374,68.405,133.188,68.369,132.988,68.369z"/>
		</g>
		<g>
			<path fill="#FFFFFF" d="M145.613,74.297h-2.374l-2.05-2.765h-0.902v2.765h-1.933v-7.538h3.26c0.446,0,0.829,0.025,1.149,0.076
				c0.32,0.05,0.621,0.16,0.901,0.329c0.283,0.168,0.509,0.387,0.675,0.655c0.168,0.269,0.252,0.605,0.252,1.01
				c0,0.557-0.13,1.01-0.388,1.361c-0.259,0.352-0.627,0.644-1.106,0.876L145.613,74.297z M142.581,69.067
				c0-0.189-0.038-0.351-0.116-0.486c-0.078-0.135-0.211-0.241-0.4-0.319c-0.131-0.054-0.285-0.087-0.461-0.099
				c-0.175-0.012-0.379-0.018-0.611-0.018h-0.705v2.03h0.598c0.311,0,0.571-0.015,0.78-0.046c0.209-0.03,0.385-0.1,0.526-0.207
				c0.135-0.105,0.233-0.221,0.297-0.348C142.551,69.45,142.581,69.279,142.581,69.067z"/>
			<path fill="#010101" d="M146.32,74.641h-3.255l-2.05-2.764h-0.383v2.764h-2.623v-8.227h3.604c0.462,0,0.867,0.026,1.203,0.079
				c0.364,0.059,0.709,0.184,1.025,0.375c0.329,0.196,0.595,0.454,0.79,0.769c0.201,0.322,0.303,0.724,0.303,1.192
				c0,0.629-0.152,1.155-0.453,1.565c-0.22,0.298-0.51,0.559-0.864,0.779L146.32,74.641z M143.413,73.952h1.495l-2.344-3.01
				l0.383-0.186c0.426-0.207,0.755-0.467,0.979-0.771c0.213-0.289,0.32-0.679,0.32-1.157c0-0.338-0.066-0.616-0.199-0.828
				c-0.138-0.223-0.321-0.4-0.559-0.541c-0.241-0.146-0.504-0.241-0.779-0.285c-0.3-0.047-0.668-0.071-1.095-0.071h-2.915v6.849
				h1.244v-2.765h1.42L143.413,73.952z M140.885,70.521h-0.941v-2.72h1.049c0.24,0,0.453,0.007,0.635,0.019
				c0.213,0.015,0.404,0.056,0.568,0.123c0.262,0.107,0.453,0.265,0.568,0.467c0.107,0.188,0.162,0.408,0.162,0.658
				c0,0.269-0.042,0.485-0.129,0.661c-0.086,0.174-0.219,0.331-0.395,0.467c-0.19,0.145-0.421,0.237-0.688,0.276
				C141.489,70.504,141.218,70.521,140.885,70.521z M140.633,69.831h0.252c0.291,0,0.535-0.014,0.73-0.042
				c0.149-0.022,0.273-0.068,0.368-0.141c0.089-0.069,0.156-0.146,0.195-0.226c0.026-0.053,0.058-0.158,0.058-0.355
				c0-0.128-0.023-0.232-0.07-0.314c-0.038-0.067-0.116-0.124-0.232-0.173c-0.096-0.038-0.215-0.063-0.354-0.073
				c-0.168-0.011-0.364-0.016-0.588-0.016h-0.359V69.831z"/>
		</g>
		<g>
			<path fill="#FFFFFF" d="M152.362,68.217h-2.354v6.08h-1.943v-6.08h-2.354v-1.458h6.652V68.217z"/>
			<path fill="#010101" d="M150.354,74.641h-2.634v-6.079h-2.354v-2.147h7.342v2.147h-2.354V74.641z M148.409,73.952h1.255v-6.08
				h2.354v-0.769h-5.963v0.769h2.354V73.952z"/>
		</g>
		<g>
			<path fill="#FFFFFF" d="M160.498,74.297h-2.008l-0.524-1.523h-2.79l-0.525,1.523h-1.958l2.784-7.538h2.238L160.498,74.297z
				 M157.498,71.392l-0.927-2.701l-0.928,2.701H157.498z"/>
			<path fill="#010101" d="M160.993,74.641h-2.749l-0.524-1.522h-2.298l-0.525,1.522h-2.699l3.039-8.227h2.718L160.993,74.641z
				 M158.736,73.952h1.268l-2.529-6.849h-1.758l-2.53,6.849h1.218l0.525-1.524h3.281L158.736,73.952z M157.981,71.735h-2.821
				l1.411-4.107L157.981,71.735z M156.126,71.046h0.89l-0.444-1.294L156.126,71.046z"/>
		</g>
		<g>
			<path fill="#FFFFFF" d="M164.988,74.443c-0.56,0-1.076-0.083-1.551-0.248s-0.883-0.411-1.223-0.739
				c-0.341-0.327-0.605-0.735-0.792-1.225c-0.188-0.49-0.281-1.055-0.281-1.696c0-0.597,0.089-1.139,0.268-1.625
				c0.179-0.485,0.438-0.903,0.78-1.251c0.326-0.334,0.732-0.592,1.217-0.774c0.484-0.182,1.014-0.272,1.588-0.272
				c0.316,0,0.603,0.018,0.857,0.053c0.256,0.035,0.49,0.082,0.707,0.139c0.227,0.064,0.432,0.137,0.615,0.215
				c0.184,0.08,0.344,0.154,0.482,0.221v1.828h-0.222c-0.095-0.081-0.214-0.176-0.357-0.287s-0.306-0.221-0.489-0.328
				c-0.186-0.107-0.386-0.197-0.602-0.271c-0.217-0.074-0.447-0.11-0.693-0.11c-0.273,0-0.533,0.042-0.78,0.129
				c-0.246,0.085-0.474,0.228-0.684,0.427c-0.198,0.191-0.36,0.445-0.483,0.762s-0.185,0.701-0.185,1.152
				c0,0.472,0.066,0.866,0.2,1.182c0.133,0.317,0.301,0.566,0.504,0.749c0.205,0.186,0.435,0.317,0.688,0.396
				c0.254,0.08,0.504,0.119,0.75,0.119c0.236,0,0.47-0.035,0.701-0.105c0.23-0.07,0.445-0.167,0.641-0.287
				c0.164-0.097,0.319-0.201,0.46-0.312c0.142-0.11,0.259-0.207,0.351-0.287h0.201v1.802c-0.188,0.085-0.369,0.164-0.541,0.238
				s-0.354,0.139-0.542,0.192c-0.246,0.071-0.478,0.125-0.693,0.162S165.367,74.443,164.988,74.443z"/>
			<path fill="#010101" d="M164.988,74.788c-0.596,0-1.156-0.09-1.664-0.268c-0.52-0.181-0.973-0.455-1.349-0.815
				s-0.671-0.815-0.876-1.351c-0.201-0.525-0.303-1.139-0.303-1.819c0-0.635,0.098-1.222,0.289-1.744
				c0.195-0.529,0.483-0.991,0.857-1.372c0.36-0.369,0.812-0.657,1.342-0.856c0.521-0.196,1.096-0.296,1.709-0.296
				c0.332,0,0.637,0.019,0.906,0.057c0.269,0.038,0.518,0.086,0.746,0.147c0.247,0.07,0.467,0.147,0.662,0.231
				c0.191,0.082,0.356,0.158,0.499,0.228l0.194,0.094v2.389h-0.694l-0.097-0.082c-0.092-0.079-0.206-0.171-0.345-0.277
				c-0.133-0.104-0.284-0.204-0.453-0.304c-0.163-0.094-0.345-0.176-0.538-0.242c-0.381-0.131-0.856-0.12-1.248,0.018
				c-0.202,0.069-0.385,0.185-0.561,0.352c-0.16,0.153-0.295,0.369-0.399,0.638c-0.106,0.274-0.161,0.621-0.161,1.026
				c0,0.424,0.059,0.777,0.174,1.049c0.111,0.268,0.252,0.479,0.416,0.625c0.17,0.153,0.354,0.26,0.561,0.324
				c0.428,0.134,0.846,0.134,1.246,0.012c0.202-0.062,0.391-0.146,0.561-0.251c0.158-0.093,0.299-0.188,0.43-0.29
				c0.135-0.105,0.246-0.197,0.333-0.274l0.099-0.086h0.678v2.37l-0.75,0.332c-0.186,0.079-0.381,0.148-0.584,0.207
				c-0.259,0.074-0.502,0.13-0.729,0.17C165.701,74.769,165.391,74.788,164.988,74.788z M164.994,66.957
				c-0.529,0-1.022,0.084-1.467,0.251c-0.435,0.164-0.802,0.396-1.092,0.692c-0.305,0.312-0.541,0.691-0.703,1.129
				c-0.163,0.445-0.246,0.952-0.246,1.506c0,0.597,0.086,1.126,0.258,1.573c0.168,0.439,0.406,0.81,0.709,1.1
				c0.305,0.291,0.673,0.514,1.098,0.662c0.436,0.151,0.919,0.229,1.438,0.229c0.357,0,0.639-0.017,0.833-0.051
				c0.204-0.035,0.424-0.086,0.657-0.154c0.174-0.049,0.342-0.108,0.5-0.177l0.334-0.146v-1.014
				c-0.152,0.118-0.316,0.229-0.493,0.333c-0.214,0.133-0.456,0.24-0.716,0.32c-0.532,0.162-1.094,0.16-1.653-0.014
				c-0.3-0.094-0.573-0.252-0.816-0.47c-0.239-0.215-0.438-0.508-0.591-0.87c-0.15-0.357-0.227-0.801-0.227-1.316
				c0-0.491,0.07-0.921,0.208-1.277c0.142-0.361,0.331-0.659,0.565-0.885c0.246-0.234,0.519-0.403,0.811-0.505
				c0.535-0.188,1.172-0.199,1.697-0.018c0.234,0.079,0.459,0.18,0.663,0.298c0.199,0.117,0.374,0.235,0.527,0.354
				c0.008,0.007,0.016,0.013,0.024,0.02v-1.068c-0.086-0.039-0.178-0.08-0.276-0.123c-0.171-0.072-0.361-0.14-0.572-0.199
				c-0.197-0.053-0.419-0.096-0.659-0.129C165.567,66.974,165.295,66.957,164.994,66.957z"/>
		</g>
		<g>
			<path fill="#FFFFFF" d="M173.16,74.297h-4.415V72.96h1.235v-4.865h-1.235v-1.336h4.415v1.336h-1.235v4.865h1.235V74.297z"/>
			<path fill="#010101" d="M173.504,74.641H168.4v-2.025h1.235v-4.176H168.4v-2.025h5.104v2.025h-1.234v4.176h1.234V74.641z
				 M169.09,73.952h3.726v-0.646h-1.235V67.75h1.235v-0.646h-3.726v0.646h1.235v5.556h-1.235V73.952z"/>
		</g>
		<g>
			<path fill="#FFFFFF" d="M182.075,70.53c0,1.201-0.344,2.155-1.033,2.863c-0.688,0.707-1.641,1.06-2.854,1.06
				c-1.212,0-2.162-0.353-2.852-1.06c-0.688-0.708-1.031-1.662-1.031-2.863c0-1.212,0.344-2.17,1.031-2.873
				c0.689-0.704,1.64-1.056,2.852-1.056c1.208,0,2.157,0.352,2.85,1.056C181.729,68.36,182.075,69.318,182.075,70.53z
				 M179.498,72.438c0.189-0.229,0.329-0.5,0.42-0.812c0.092-0.312,0.137-0.679,0.137-1.101c0-0.452-0.052-0.837-0.156-1.154
				c-0.105-0.317-0.242-0.574-0.41-0.77c-0.172-0.202-0.37-0.35-0.596-0.44c-0.225-0.091-0.457-0.137-0.701-0.137
				c-0.246,0-0.478,0.043-0.695,0.131s-0.418,0.233-0.6,0.436c-0.17,0.189-0.307,0.45-0.413,0.783
				c-0.106,0.332-0.159,0.717-0.159,1.156c0,0.449,0.051,0.831,0.154,1.146c0.104,0.316,0.238,0.573,0.408,0.771
				c0.168,0.199,0.365,0.347,0.592,0.441c0.226,0.094,0.464,0.142,0.713,0.142c0.25,0,0.488-0.048,0.715-0.145
				C179.132,72.791,179.33,72.642,179.498,72.438z"/>
			<path fill="#010101" d="M178.188,74.799c-1.303,0-2.345-0.392-3.098-1.165c-0.75-0.771-1.131-1.814-1.131-3.104
				c0-1.3,0.381-2.347,1.131-3.114c0.753-0.769,1.795-1.159,3.098-1.159c1.298,0,2.34,0.391,3.096,1.159
				c0.754,0.767,1.137,1.814,1.137,3.114c0,1.289-0.38,2.334-1.131,3.104C180.536,74.407,179.492,74.799,178.188,74.799z
				 M178.188,66.946c-1.126,0-1.979,0.312-2.605,0.952c-0.619,0.634-0.934,1.52-0.934,2.632c0,1.119,0.307,1.977,0.936,2.622
				c0.627,0.645,1.479,0.957,2.604,0.957c1.128,0,1.98-0.312,2.607-0.957c0.63-0.646,0.936-1.503,0.936-2.622
				c0-1.112-0.316-1.998-0.939-2.631C180.161,67.258,179.309,66.946,178.188,66.946z M178.191,73.376
				c-0.293,0-0.578-0.057-0.846-0.168c-0.277-0.116-0.52-0.297-0.723-0.537c-0.197-0.232-0.356-0.53-0.473-0.888
				c-0.113-0.347-0.171-0.769-0.171-1.253c0-0.473,0.059-0.897,0.175-1.262c0.121-0.377,0.284-0.682,0.484-0.907
				c0.217-0.241,0.462-0.418,0.729-0.525c0.516-0.207,1.123-0.21,1.656,0.005c0.274,0.112,0.52,0.293,0.728,0.537
				c0.196,0.227,0.355,0.525,0.475,0.885c0.115,0.352,0.175,0.775,0.175,1.263c0,0.451-0.051,0.854-0.151,1.197
				c-0.104,0.356-0.267,0.671-0.484,0.936c-0.205,0.245-0.448,0.429-0.724,0.546C178.773,73.317,178.486,73.376,178.191,73.376z
				 M178.191,68.369c-0.203,0-0.389,0.035-0.566,0.106c-0.168,0.067-0.327,0.184-0.473,0.346c-0.135,0.151-0.25,0.372-0.34,0.656
				c-0.096,0.298-0.145,0.651-0.145,1.053c0,0.411,0.047,0.761,0.139,1.039c0.088,0.271,0.203,0.492,0.342,0.656
				c0.135,0.159,0.286,0.271,0.463,0.346c0.367,0.154,0.793,0.154,1.16-0.002c0.176-0.075,0.327-0.189,0.462-0.352
				c0.156-0.189,0.276-0.422,0.354-0.688c0.081-0.28,0.123-0.619,0.123-1.005c0-0.413-0.048-0.766-0.141-1.048
				c-0.09-0.271-0.205-0.491-0.344-0.65c-0.139-0.164-0.289-0.275-0.463-0.347C178.578,68.405,178.392,68.369,178.191,68.369z"/>
		</g>
		<g>
			<path fill="#FFFFFF" d="M190.414,74.297h-1.873l-3.199-5.174v5.174h-1.783v-7.538h2.324l2.749,4.318v-4.318h1.782V74.297z"/>
			<path fill="#010101" d="M190.758,74.641h-2.41l-2.662-4.305v4.305h-2.472v-8.227h2.858l2.215,3.479v-3.479h2.471V74.641z
				 M188.732,73.952h1.337v-6.849h-1.093v5.157l-3.283-5.157h-1.79v6.849h1.093V67.91L188.732,73.952z"/>
		</g>
	</g>
	<g>
		<g>
			<g>
				<g>
					<path fill="#FFFFFF" d="M172.308,11.001c0.746,1.188,1.636,2.808,1.636,3.436c0,0.9-0.734,1.635-1.636,1.635
						s-1.634-0.734-1.634-1.635C170.674,13.809,171.562,12.188,172.308,11.001 M172.308,10.155c0,0-2.095,3.123-2.095,4.281
						c0,1.156,0.938,2.094,2.095,2.094s2.095-0.938,2.095-2.094C174.402,13.278,172.308,10.155,172.308,10.155L172.308,10.155z"/>
				</g>
			</g>
			<g>
				<g>
					<path fill="#FFFFFF" d="M178.054,11.001c0.745,1.188,1.635,2.808,1.635,3.436c0,0.9-0.733,1.635-1.635,1.635
						s-1.635-0.734-1.635-1.635C176.419,13.809,177.308,12.188,178.054,11.001 M178.054,10.155c0,0-2.095,3.123-2.095,4.281
						c0,1.156,0.938,2.094,2.095,2.094s2.095-0.938,2.095-2.094C180.148,13.278,178.054,10.155,178.054,10.155L178.054,10.155z"/>
				</g>
			</g>
			<g>
				<g>
					<path fill="#FFFFFF" d="M169.436,16.22c0.745,1.188,1.635,2.807,1.635,3.436c0,0.9-0.734,1.634-1.635,1.634
						c-0.901,0-1.636-0.733-1.636-1.634C167.8,19.026,168.689,17.407,169.436,16.22 M169.436,15.375c0,0-2.095,3.122-2.095,4.28
						c0,1.156,0.938,2.094,2.095,2.094c1.156,0,2.094-0.938,2.094-2.094C171.529,18.497,169.436,15.375,169.436,15.375
						L169.436,15.375z"/>
				</g>
			</g>
			<g>
				<g>
					<path fill="#FFFFFF" d="M175.181,16.22c0.745,1.188,1.636,2.807,1.636,3.436c0,0.9-0.734,1.634-1.636,1.634
						s-1.636-0.733-1.636-1.634C173.545,19.026,174.436,17.407,175.181,16.22 M175.181,15.375c0,0-2.095,3.122-2.095,4.28
						c0,1.156,0.938,2.094,2.095,2.094c1.156,0,2.095-0.938,2.095-2.094C177.275,18.497,175.181,15.375,175.181,15.375
						L175.181,15.375z"/>
				</g>
			</g>
			<g>
				<g>
					<path fill="#FFFFFF" d="M180.926,16.22c0.746,1.188,1.636,2.807,1.636,3.436c0,0.9-0.733,1.634-1.636,1.634
						c-0.9,0-1.635-0.733-1.635-1.634C179.291,19.026,180.181,17.407,180.926,16.22 M180.926,15.375c0,0-2.094,3.122-2.094,4.28
						c0,1.156,0.938,2.094,2.094,2.094c1.158,0,2.096-0.938,2.096-2.094C183.021,18.497,180.926,15.375,180.926,15.375
						L180.926,15.375z"/>
				</g>
			</g>
		</g>
		<g>
			<g>
				<g>
					<path fill="#FFFFFF" d="M179.717,36.147l4.854-1.215l-4.854-1.216l3.596-3.479l-4.812,1.375l1.375-4.812l-3.48,3.597
						l-1.215-4.854l-1.215,4.854l-3.479-3.597l1.375,4.812l-4.812-1.375l3.596,3.479l-4.854,1.216l4.854,1.215l-3.596,3.479
						l4.812-1.376l-1.375,4.812l3.479-3.596l1.215,4.854l1.215-4.854l3.48,3.596l-1.375-4.812l4.812,1.376L179.717,36.147z
						 M175.181,38.599c-2.025,0-3.667-1.642-3.667-3.666c0-2.026,1.642-3.668,3.667-3.668c2.024,0,3.667,1.642,3.667,3.668
						C178.848,36.957,177.205,38.599,175.181,38.599z"/>
				</g>
			</g>
			<g>
				<g>
					<circle fill="#FFFFFF" cx="175.18" cy="34.933" r="3.112"/>
				</g>
			</g>
		</g>
	</g>
	<g>
		<g>
			<g>
				<g>
					<path fill="#FFFFFF" d="M23.404,51.081c0,1.156-0.938,2.095-2.094,2.095c-1.157,0-2.095-0.938-2.095-2.095
						c0-1.157,2.095-4.281,2.095-4.281S23.404,49.924,23.404,51.081z"/>
				</g>
			</g>
			<g>
				<g>
					<path fill="#FFFFFF" d="M29.149,51.081c0,1.156-0.938,2.095-2.094,2.095s-2.095-0.938-2.095-2.095
						c0-1.157,2.095-4.281,2.095-4.281S29.149,49.924,29.149,51.081z"/>
				</g>
			</g>
			<g>
				<g>
					<path fill="#FFFFFF" d="M20.531,56.3c0,1.156-0.938,2.095-2.095,2.095s-2.094-0.938-2.094-2.095c0-1.158,2.094-4.28,2.094-4.28
						S20.531,55.142,20.531,56.3z"/>
				</g>
			</g>
			<g>
				<g>
					<path fill="#FFFFFF" d="M26.277,56.3c0,1.156-0.938,2.095-2.095,2.095c-1.157,0-2.094-0.938-2.094-2.095
						c0-1.158,2.094-4.28,2.094-4.28S26.277,55.142,26.277,56.3z"/>
				</g>
			</g>
			<g>
				<g>
					<path fill="#FFFFFF" d="M32.023,56.3c0,1.156-0.938,2.095-2.095,2.095c-1.157,0-2.094-0.938-2.094-2.095
						c0-1.158,2.094-4.28,2.094-4.28S32.023,55.142,32.023,56.3z"/>
				</g>
			</g>
		</g>
		<g>
			<g>
				<g>
					<path fill="#FFFFFF" d="M26.975,27.824c0.175-0.147,0.197-0.408,0.05-0.583c-0.147-0.174-0.408-0.196-0.583-0.049l-2.473,1.867
						l-0.155-3.105c0-0.227-0.183-0.41-0.41-0.412c-0.227,0.002-0.41,0.186-0.41,0.412l-0.155,3.105l-2.472-1.867
						c-0.175-0.147-0.436-0.125-0.583,0.049c-0.147,0.175-0.125,0.436,0.049,0.583l3.006,3.061v0.09l-0.905-0.642
						c-0.175-0.147-0.435-0.123-0.583,0.05c-0.147,0.174-0.125,0.436,0.049,0.583l1.411,1.006c0.011,0.01,0.354,0.514,0.366,0.522
						c0.023,0.015,0.043,0.032,0.068,0.043c0.004,0.001,0.008,0.001,0.013,0.003c0.038,0.016,0.077,0.021,0.118,0.024
						c0.009,0.001,0.017,0.006,0.026,0.006c0.001,0,0.002,0,0.003,0c0.001,0,0.002,0,0.003,0c0.009,0,0.017-0.005,0.026-0.006
						c0.04-0.003,0.079-0.009,0.117-0.024c0.004-0.002,0.009-0.002,0.013-0.003c0.025-0.011,0.045-0.028,0.068-0.043
						c0.012-0.009,0.355-0.513,0.366-0.522l1.41-1.006c0.175-0.147,0.197-0.409,0.05-0.583c-0.147-0.173-0.407-0.197-0.583-0.05
						l-0.906,0.642v-0.09L26.975,27.824z"/>
				</g>
			</g>
			<g>
				<g>
					<path fill="#FFFFFF" d="M19.034,28.286c-0.041-0.227-0.255-0.375-0.48-0.335c-0.224,0.041-0.374,0.255-0.334,0.479l0.38,3.075
						l-2.766-1.417c-0.197-0.115-0.447-0.048-0.562,0.148c-0.112,0.197-0.044,0.447,0.152,0.561l2.611,1.687l-2.853,1.208
						c-0.215,0.078-0.326,0.315-0.249,0.529c0.078,0.215,0.314,0.326,0.529,0.248l4.153-1.072l0.078,0.045l-1.008,0.464
						c-0.215,0.078-0.325,0.314-0.248,0.529c0.077,0.214,0.314,0.325,0.529,0.248l1.577-0.718c0.014-0.004,0.623-0.05,0.635-0.057
						c0.024-0.012,0.049-0.021,0.071-0.037c0.004-0.003,0.006-0.007,0.01-0.01c0.032-0.025,0.057-0.056,0.08-0.089
						c0.005-0.008,0.013-0.012,0.018-0.021c0,0,0-0.001,0.001-0.002c0,0,0.001-0.002,0.002-0.003
						c0.004-0.007,0.004-0.018,0.008-0.025c0.018-0.036,0.032-0.073,0.037-0.113c0.001-0.005,0.003-0.009,0.003-0.009
						c0.003-0.031-0.001-0.058-0.003-0.085c0-0.014-0.266-0.563-0.268-0.577l-0.167-1.726c-0.04-0.226-0.255-0.374-0.479-0.334
						c-0.225,0.041-0.375,0.255-0.334,0.479l0.103,1.105l-0.078-0.045L19.034,28.286z"/>
				</g>
			</g>
			<g>
				<g>
					<path fill="#FFFFFF" d="M15.463,35.394c-0.215-0.078-0.452,0.033-0.53,0.247c-0.077,0.216,0.034,0.453,0.249,0.53l2.853,1.208
						l-2.611,1.687c-0.197,0.113-0.264,0.364-0.152,0.562c0.115,0.195,0.365,0.262,0.562,0.148l2.766-1.417l-0.38,3.074
						c-0.04,0.225,0.109,0.439,0.334,0.479c0.224,0.04,0.439-0.108,0.48-0.334l1.147-4.134l0.078-0.045l-0.103,1.105
						c-0.04,0.225,0.11,0.438,0.334,0.479c0.225,0.041,0.439-0.109,0.479-0.334l0.167-1.725c0.003-0.015,0.268-0.564,0.269-0.578
						c0.001-0.026,0.007-0.054,0.003-0.081c0-0.004-0.002-0.008-0.002-0.008c-0.007-0.045-0.021-0.082-0.039-0.118
						c-0.003-0.009-0.003-0.017-0.008-0.025c0-0.001-0.001-0.001-0.002-0.003c-0.001-0.001-0.001-0.001-0.001-0.001
						c-0.004-0.01-0.013-0.014-0.018-0.021c-0.022-0.032-0.048-0.063-0.08-0.089c-0.004-0.003-0.006-0.007-0.01-0.01
						c-0.021-0.016-0.046-0.024-0.071-0.036c-0.013-0.007-0.622-0.052-0.635-0.058l-1.577-0.717
						c-0.215-0.078-0.452,0.033-0.529,0.248s0.033,0.451,0.248,0.529l1.008,0.463l-0.078,0.045L15.463,35.394z"/>
				</g>
			</g>
			<g>
				<g>
					<path fill="#FFFFFF" d="M19.833,42.04c-0.175,0.147-0.197,0.408-0.05,0.583c0.146,0.174,0.408,0.196,0.583,0.049l2.474-1.867
						l0.155,3.104c0,0.228,0.183,0.41,0.41,0.413c0.228-0.003,0.41-0.186,0.41-0.413l0.154-3.104l2.473,1.867
						c0.175,0.147,0.436,0.125,0.583-0.049c0.147-0.175,0.126-0.436-0.049-0.583l-3.007-3.061v-0.09l0.906,0.642
						c0.175,0.147,0.435,0.124,0.583-0.05c0.146-0.175,0.125-0.436-0.05-0.583l-1.411-1.006c-0.011-0.01-0.354-0.515-0.366-0.522
						c-0.023-0.015-0.043-0.033-0.069-0.043c-0.004-0.002-0.008-0.002-0.012-0.003c-0.038-0.015-0.077-0.021-0.118-0.024
						c-0.008-0.002-0.017-0.006-0.026-0.006c0,0-0.001,0-0.003,0c-0.001,0-0.001,0-0.003,0c-0.009,0-0.017,0.004-0.026,0.005
						c-0.04,0.004-0.079,0.01-0.117,0.025c-0.004,0.001-0.009,0.001-0.012,0.003c-0.025,0.011-0.045,0.028-0.068,0.043
						c-0.012,0.008-0.355,0.513-0.366,0.521l-1.41,1.007c-0.175,0.147-0.197,0.408-0.05,0.583c0.147,0.174,0.407,0.196,0.583,0.05
						l0.906-0.642v0.09L19.833,42.04z"/>
				</g>
			</g>
			<g>
				<g>
					<path fill="#FFFFFF" d="M27.774,41.578c0.041,0.226,0.255,0.375,0.479,0.335c0.225-0.041,0.375-0.255,0.334-0.48l-0.38-3.074
						l2.766,1.417c0.197,0.114,0.447,0.047,0.562-0.148c0.112-0.197,0.045-0.447-0.152-0.562l-2.611-1.687l2.854-1.207
						c0.214-0.078,0.325-0.315,0.249-0.529c-0.078-0.215-0.314-0.327-0.53-0.249l-4.152,1.074l-0.079-0.047l1.008-0.463
						c0.216-0.077,0.325-0.314,0.249-0.529c-0.078-0.214-0.314-0.326-0.529-0.248l-1.577,0.718c-0.013,0.005-0.623,0.05-0.635,0.057
						c-0.024,0.012-0.049,0.021-0.071,0.036c-0.003,0.003-0.005,0.008-0.009,0.01c-0.032,0.026-0.057,0.057-0.081,0.09
						c-0.004,0.008-0.013,0.011-0.018,0.02c0,0,0,0.001-0.001,0.003c-0.001,0.001-0.001,0.001-0.002,0.003
						c-0.004,0.008-0.003,0.016-0.008,0.024c-0.018,0.036-0.032,0.073-0.037,0.114c0,0-0.003,0.009-0.003,0.014
						c-0.004,0.025,0.001,0.053,0.003,0.079c0.001,0.014,0.267,0.563,0.268,0.578l0.167,1.725c0.04,0.226,0.254,0.375,0.479,0.334
						c0.225-0.04,0.374-0.255,0.334-0.479L26.548,37.4l0.078,0.046L27.774,41.578z"/>
				</g>
			</g>
			<g>
				<g>
					<path fill="#FFFFFF" d="M31.344,34.47c0.215,0.078,0.453-0.033,0.53-0.247c0.077-0.214-0.034-0.452-0.249-0.53l-2.854-1.208
						l2.611-1.687c0.198-0.113,0.265-0.363,0.152-0.561c-0.115-0.195-0.364-0.262-0.562-0.148l-2.766,1.417l0.38-3.075
						c0.04-0.224-0.109-0.438-0.333-0.479c-0.225-0.04-0.439,0.108-0.48,0.335l-1.146,4.133l-0.079,0.045l0.103-1.105
						c0.041-0.225-0.11-0.438-0.334-0.479c-0.224-0.04-0.439,0.11-0.479,0.334l-0.166,1.726c-0.003,0.014-0.268,0.564-0.27,0.577
						c-0.001,0.027-0.007,0.054-0.003,0.081l0.003,0.014c0.006,0.039,0.02,0.076,0.038,0.113c0.003,0.008,0.002,0.018,0.007,0.024
						c0,0,0.001,0.001,0.002,0.003c0,0,0,0.002,0,0.004c0.004,0.007,0.014,0.011,0.018,0.02c0.023,0.033,0.048,0.063,0.08,0.088
						c0.003,0.004,0.005,0.009,0.009,0.01c0.022,0.017,0.047,0.025,0.071,0.037c0.013,0.007,0.622,0.053,0.635,0.057l1.577,0.718
						c0.215,0.078,0.451-0.034,0.529-0.248c0.077-0.214-0.033-0.45-0.249-0.528l-1.008-0.465l0.078-0.045L31.344,34.47z"/>
				</g>
			</g>
		</g>
	</g>
</g>
</svg>
